<svg width="67" height="114" viewBox="0 0 67 114" fill="none" xmlns="http://www.w3.org/2000/svg">
<g opacity="0.5">
<g opacity="0.5">
<g opacity="0.5">
<path opacity="0.5" d="M28.7408 27.7549C28.7408 27.7549 28.7408 27.8075 28.7408 27.9653C28.7408 28.0705 28.7408 28.2809 28.7933 28.4915C28.7933 28.5967 28.8459 28.702 28.8459 28.8072C28.8459 28.9125 28.8985 29.0704 28.9511 29.1757C29.0036 29.281 29.0562 29.439 29.1088 29.5969C29.1613 29.7022 29.2139 29.8602 29.319 29.9656C29.3716 30.0709 29.4242 30.2289 29.5293 30.3343C29.6345 30.4398 29.687 30.5977 29.7396 30.703C29.7922 30.8084 29.8973 30.9138 29.9499 31.0191C30.055 31.1246 30.1076 31.2299 30.1602 31.2826C30.423 31.5989 30.6333 31.8623 30.6333 31.8623C30.6333 31.8623 30.423 31.6515 30.1076 31.3351C30.0025 31.2297 29.9499 31.177 29.8447 31.0715C29.7396 30.9661 29.687 30.8607 29.5819 30.7553C29.4768 30.6498 29.4242 30.5445 29.319 30.3865C29.2139 30.281 29.1613 30.1231 29.0562 30.0176C29.0036 29.8597 28.8985 29.7543 28.8459 29.6489C28.7933 29.491 28.7408 29.3857 28.6882 29.2277C28.6356 29.1224 28.5831 28.9645 28.5305 28.8591C28.4779 28.7538 28.4779 28.596 28.4253 28.4907C28.3728 28.2801 28.3728 28.0697 28.3728 27.9119C28.3728 27.7541 28.3728 27.7015 28.3728 27.7015C28.3728 27.5963 28.4779 27.5439 28.5831 27.5441C28.6882 27.5443 28.7408 27.6497 28.7408 27.7549Z" fill="#00730C"/>
<g opacity="0.5">
<g opacity="0.5">
<path opacity="0.5" d="M46.2468 45.2063C47.2456 45.2611 48.2445 45.2633 49.2433 45.3182C49.6639 45.3191 50.0844 45.32 50.5576 45.3211C50.7153 45.3214 50.9256 45.3219 51.0833 45.3222C51.241 45.3226 51.4513 45.2704 51.5564 45.3233C51.3461 45.2702 51.1358 45.0067 50.9781 44.9012C50.7153 44.6901 50.505 44.4793 50.2947 44.2684C49.769 43.7937 49.2959 43.3192 48.8227 42.7921C47.9816 41.896 42.304 33.9399 41.0423 32.6745C40.0961 31.7255 38.9921 30.8814 37.7304 30.4051C36.2584 29.8232 34.6287 29.6618 33.0516 29.7635C31.9476 29.8663 30.686 30.0213 29.6345 30.4924C29.4768 30.5447 29.4243 30.6498 29.3191 30.8599C29.1088 31.2277 28.9511 31.6482 28.846 32.0688C27.9523 34.7498 28.2677 37.6964 30.0551 39.9624C32.1054 42.5972 35.3647 43.9722 38.5189 44.6105C39.7806 44.7711 45.3531 45.1517 46.2468 45.2063Z" fill="#00730C"/>
<path opacity="0.5" d="M42.4092 34.0981C41.463 32.9387 40.4116 31.8316 39.1499 31.0398C36.6791 29.4035 33.5774 29.344 30.7386 30.0216C30.318 30.1259 29.95 30.2303 29.5295 30.3872C29.4243 30.4395 29.4243 30.4395 29.5295 30.545C29.8975 30.9666 30.318 31.441 30.7386 31.8628C32.2631 33.497 33.9454 35.0789 35.6802 36.5031C39.2024 39.3516 43.0401 41.7274 47.1931 43.5778C48.6125 44.2122 50.0319 44.7414 51.5039 45.2708C50.1896 44.3209 43.8812 35.89 42.4092 34.0981Z" fill="#00730C"/>
</g>
<g opacity="0.5">
<g opacity="0.5">
<path opacity="0.5" d="M46.0364 40.3662C45.2478 40.9432 44.249 41.0988 43.3027 41.0967C42.3039 41.0418 41.4628 40.6191 40.6216 40.0912C41.5153 40.5666 42.409 40.9369 43.4079 41.0443C44.3016 40.9937 45.2478 40.8379 46.0364 40.3662Z" fill="#00730C"/>
<path opacity="0.5" d="M48.1392 42.7907C47.1929 43.4725 45.9312 43.2066 44.9849 42.6259C45.9838 43.1541 47.1403 43.4197 48.1392 42.7907Z" fill="#00730C"/>
<path opacity="0.5" d="M43.9336 37.9417C42.8822 38.6232 41.5154 38.8306 40.3062 38.7227C38.8343 38.6142 37.5726 37.9802 36.3635 37.1884C37.6251 37.8751 38.8868 38.4565 40.3062 38.6175C41.5154 38.7254 42.8296 38.5179 43.9336 37.9417Z" fill="#00730C"/>
<path opacity="0.5" d="M42.0935 35.0442C40.7792 35.9356 39.097 36.1949 37.5724 36.1389C35.8902 36.03 34.3657 35.2901 32.9463 34.3927C33.6297 34.7625 34.3131 35.1848 35.0491 35.4495C35.9428 35.7671 36.8365 35.9795 37.8353 36.0343C39.2547 36.1427 40.8844 35.8307 42.0935 35.0442Z" fill="#00730C"/>
<path opacity="0.5" d="M40.3062 32.8307C38.7816 33.7743 36.8891 33.8753 35.1543 33.661C33.3143 33.4465 31.632 32.4432 30.1601 31.3353C31.6846 32.3382 33.2617 33.0781 35.0491 33.4503C36.8365 33.6647 38.6765 33.6688 40.3062 32.8307Z" fill="#00730C"/>
</g>
<path opacity="0.5" d="M43.5656 44.3063C43.5656 43.4119 43.1976 42.4642 42.6719 41.7792C42.0411 40.9361 41.2525 40.4083 40.3588 39.8802C41.2525 40.3031 42.0936 40.7784 42.6719 41.5688C43.1976 42.4116 43.6182 43.3069 43.5656 44.3063Z" fill="#00730C"/>
<path opacity="0.5" d="M46.5096 44.8391C46.5096 43.6292 45.6159 42.7855 44.6697 42.3099C45.6159 42.7855 46.5622 43.6819 46.5096 44.8391Z" fill="#00730C"/>
<path opacity="0.5" d="M40.8319 43.7743C40.8845 42.5645 40.4114 41.2483 39.728 40.2473C38.9394 39.0356 37.8354 38.1914 36.5737 37.3995C37.8354 38.0862 38.992 38.9305 39.7805 40.1422C40.464 41.1958 40.9897 42.5121 40.8319 43.7743Z" fill="#00730C"/>
<path opacity="0.5" d="M37.2571 43.7136C37.5726 42.3466 37.4149 40.6628 36.8366 39.3464C36.4686 38.4513 35.9955 37.6611 35.4172 36.9234C34.944 36.2911 34.3658 35.7637 33.7875 35.2364C35.0492 36.2913 36.2583 37.5039 36.8891 39.0835C37.4148 40.505 37.7303 42.1365 37.2571 43.7136Z" fill="#00730C"/>
<path opacity="0.5" d="M33.5773 40.865C34.0504 39.1826 33.735 37.3407 33.1567 35.7087C32.5259 33.9713 31.3167 32.5482 30.055 31.2303C30.6333 31.7576 31.2116 32.285 31.7373 32.9174C32.3682 33.7079 32.8939 34.6034 33.2618 35.4985C33.8401 37.2884 34.2081 39.1304 33.5773 40.865Z" fill="#00730C"/>
</g>
<path opacity="0.5" d="M51.5564 45.271C51.4513 45.2708 49.8216 44.6359 49.6113 44.5828C48.665 44.2125 47.7188 43.7895 46.7725 43.3666C44.7222 42.4677 42.7246 41.4112 40.7795 40.3021C38.7818 39.1404 36.8367 37.8735 35.0493 36.4492C33.4196 35.1304 29.7397 30.9664 29.3717 30.4921C29.3717 30.4921 29.3717 30.4921 29.4243 30.4922C30.5808 31.81 31.7899 33.1278 33.1042 34.288C34.7864 35.7647 36.5213 37.1889 38.3612 38.4556C41.9886 40.8835 45.8262 42.9962 49.9267 44.6361C50.2947 44.7947 50.6627 44.9534 51.0833 45.1121C51.1358 45.0596 51.4513 45.2181 51.5564 45.271Z" fill="#00730C"/>
</g>
<path opacity="0.5" d="M2.08764 112.707C2.5082 112.287 2.92876 111.762 3.4019 111.237C5.715 108.612 8.92179 104.831 12.3389 99.8938C14.0737 97.4252 15.8085 94.7461 17.4908 91.7513C19.173 88.7565 20.8027 85.5511 22.2221 82.0823C23.6415 78.6134 24.798 74.881 25.534 71.0424L25.6917 70.3063L25.7969 69.57C25.8495 69.0967 25.9546 68.5708 26.0072 68.0975L26.0597 67.7294L26.1123 67.3612L26.1649 66.6249L26.27 65.1521L26.27 63.6266L26.27 62.8901C26.27 62.6271 26.27 62.364 26.27 62.1536L26.1649 60.6278L26.1123 59.8912C26.1123 59.6282 26.0597 59.4176 26.0072 59.1545C25.7969 57.155 25.3763 55.2076 24.9558 53.2603C24.5352 51.3129 24.0095 49.418 23.4838 47.523C22.4324 43.7856 21.1707 40.153 19.909 36.6256C18.6473 33.1508 17.3856 29.7812 16.3342 26.57C15.2828 23.3587 14.4417 20.253 14.2314 17.3066C14.1263 15.8334 14.1788 14.4132 14.4417 13.0986C14.7045 11.7841 15.1777 10.5752 15.8085 9.57706C16.4394 8.57895 17.1753 7.73888 17.9639 7.00415C18.7525 6.32202 19.541 5.7451 20.2244 5.32577C21.6964 4.43473 22.9581 3.85886 23.7992 3.54509C24.2198 3.3356 24.5352 3.23109 24.798 3.17907C25.0083 3.07432 25.1135 3.07455 25.1135 3.07455C25.1135 3.07455 25.0083 3.12693 24.7455 3.17895C24.5352 3.28369 24.1672 3.38809 23.7466 3.54498C22.9055 3.85875 21.6438 4.38201 20.1193 5.27293C19.3833 5.69215 18.5947 6.26906 17.8062 6.95119C17.0176 7.63332 16.2291 8.47327 15.5982 9.52399C14.9148 10.522 14.4417 11.7835 14.1263 13.0979C13.8108 14.4124 13.7583 15.8852 13.8634 17.3584C14.0211 20.3573 14.8622 23.5155 15.8085 26.7792C16.8074 30.043 18.0165 33.4125 19.2256 36.9397C20.4347 40.467 21.5913 44.0994 22.5901 47.8366C23.1158 49.7316 23.5364 51.6264 23.9569 53.5211C24.3249 55.4157 24.6929 57.363 24.9032 59.3099C24.9558 59.573 24.9558 59.7834 25.0083 60.0466L25.0609 60.7832L25.1135 62.2563C25.1135 62.5193 25.1135 62.7297 25.1135 62.9927L25.1135 63.7292L25.0609 65.2021L24.9032 66.6747L24.8506 67.4111L24.798 67.7792L24.7455 68.1473C24.6929 68.6206 24.5878 69.0939 24.5352 69.5672L24.4301 70.3035L24.2723 70.987C23.4838 74.7729 22.2747 78.3474 20.8553 81.711C19.4359 85.0747 17.7536 88.2273 16.0714 91.1169C14.3365 94.0064 12.6017 96.6328 10.8669 99.0488C7.39725 103.828 4.19046 107.504 1.87736 110.024C1.50937 110.444 1.14137 110.811 0.825952 111.126L0.825952 112.862L2.08764 112.865L2.08764 112.707Z" fill="#00730C"/>
<path opacity="0.5" d="M21.6962 43.2056C21.6962 43.2056 21.4859 43.2052 21.4333 42.8368C21.4859 42.5213 21.3808 42.1002 21.4859 41.5744C21.591 41.0485 21.6962 40.4175 21.8539 39.6814C22.0116 38.9452 22.2219 38.104 22.5373 37.263C22.695 36.8425 22.8527 36.3694 23.0104 35.8963C23.2207 35.4233 23.3784 34.9502 23.5887 34.4772C24.0093 33.5313 24.535 32.5329 25.1658 31.5348C25.7967 30.5367 26.4801 29.5913 27.3212 28.6988C28.1623 27.8064 29.0035 26.9666 30.0023 26.2323C30.9486 25.4979 32 24.869 33.0514 24.2927C33.5771 24.0308 34.1028 23.7689 34.6285 23.5597C35.1542 23.3504 35.6799 23.1412 36.2056 22.9845C36.7313 22.8278 37.257 22.6712 37.7827 22.5145C38.3084 22.4105 38.8341 22.3064 39.3073 22.2023C39.7804 22.0981 40.3061 22.0467 40.7792 21.9951C40.9895 21.943 41.2524 21.9436 41.4626 21.8914C41.6729 21.8919 41.9358 21.8399 42.1461 21.8403C42.5666 21.7887 42.9872 21.7896 43.4077 21.7379C43.8283 21.7389 44.1963 21.7397 44.5643 21.7405C44.9323 21.7413 45.2477 21.742 45.5631 21.7427C45.8785 21.7434 46.1414 21.7966 46.4043 21.7972C47.4031 21.852 48.0339 21.906 48.0339 21.906C48.0339 21.906 47.4557 21.9047 46.4043 21.8498C46.1414 21.8492 45.8785 21.8486 45.5631 21.8479C45.2477 21.8472 44.9323 21.8991 44.5643 21.8983C44.1963 21.8975 43.8283 21.8967 43.4077 21.9483C42.9872 22 42.5666 22.0517 42.1461 22.1034C41.9358 22.1029 41.7255 22.155 41.4626 22.1545C41.2524 22.2066 40.9895 22.2586 40.7792 22.2582C40.3061 22.3623 39.833 22.4139 39.3598 22.518C38.8867 22.6222 38.361 22.7789 37.8879 22.883C37.3622 23.0397 36.889 23.1964 36.3633 23.4057C35.8376 23.615 35.3645 23.8243 34.8388 24.0336C34.3131 24.2955 33.8399 24.5574 33.3142 24.8193C32.3154 25.3957 31.3166 26.0248 30.4754 26.812C29.5817 27.5465 28.7406 28.3864 28.0046 29.279C27.2686 30.1717 26.6378 31.1172 26.0595 32.0628C25.5338 33.0086 25.0081 33.9543 24.6401 34.9004C24.4298 35.3734 24.2721 35.8465 24.1144 36.267C23.9567 36.7401 23.799 37.1606 23.6939 37.5812C23.431 38.4223 23.2733 39.2111 23.1156 39.8946C23.0104 40.5782 22.9053 41.2093 22.8527 41.7352C22.8002 42.2612 22.7476 42.6293 22.7476 42.8923C22.7476 43.1553 22.5899 44.5754 22.5899 44.5754C22.5899 44.9962 22.1693 44.3114 22.0116 43.9954C21.7488 43.6792 21.6436 43.6263 21.6962 43.2056Z" fill="#00730C"/>
<g opacity="0.5">
<g opacity="0.5">
<path opacity="0.5" d="M62.7009 21.5175C63.4368 20.8879 64.2254 20.2058 64.9614 19.5761C65.2768 19.2612 65.5922 18.9989 65.9076 18.6839C66.0128 18.5789 66.1705 18.4215 66.2756 18.3165C66.3808 18.2115 66.4859 18.0013 66.5911 17.949C66.3808 18.0537 66.1179 18.0005 65.9076 18C65.5922 17.9993 65.2768 17.9986 64.9614 17.9979C64.278 17.9964 63.542 17.9948 62.8586 17.8881C61.5969 17.7801 52.0816 15.8125 50.3468 15.7035C48.98 15.6478 47.6132 15.75 46.3515 16.2733C44.8795 16.8487 43.5652 17.7927 42.5138 19.0003C41.7779 19.8404 40.9367 20.838 40.5162 21.8366C40.4636 21.9943 40.4636 22.0995 40.5687 22.3102C40.6739 22.7312 40.8316 23.1524 41.0419 23.5211C42.1984 26.1014 44.4064 28.0527 47.2452 28.5325C50.5045 29.0657 53.869 27.8633 56.6027 26.1859C57.6541 25.557 62.0174 22.0947 62.7009 21.5175Z" fill="#00730C"/>
<path opacity="0.5" d="M52.3447 15.9709C50.8728 15.7572 49.3482 15.6486 47.8763 15.9084C44.9323 16.4279 42.6192 18.4744 41.0421 20.8382C40.8318 21.1533 40.569 21.521 40.4113 21.8889C40.3587 21.994 40.3587 21.994 40.5164 21.9943C41.0947 22.0482 41.6729 22.1021 42.3038 22.1561C44.5643 22.319 46.8248 22.324 49.0854 22.1712C53.6064 21.9182 58.0223 21.0336 62.2805 19.5701C63.7525 19.0473 65.1719 18.5244 66.5913 17.8963C64.9616 18.1557 54.6578 16.2917 52.3447 15.9709Z" fill="#00730C"/>
</g>
<g opacity="0.5">
<g opacity="0.5">
<path opacity="0.5" d="M59.2314 18.0909C59.0212 19.0373 58.3903 19.825 57.7069 20.4548C56.9183 21.0843 56.0247 21.3453 55.0784 21.5011C56.0772 21.2402 56.9709 20.9266 57.7595 20.2971C58.4429 19.7725 59.0212 18.9847 59.2314 18.0909Z" fill="#00730C"/>
<path opacity="0.5" d="M62.4382 18.4135C62.1754 19.5703 61.0714 20.1991 60.02 20.4072C61.124 20.1992 62.1228 19.5702 62.4382 18.4135Z" fill="#00730C"/>
<path opacity="0.5" d="M56.0247 17.7681C55.7092 18.9773 54.8681 20.0802 53.8693 20.8144C52.7127 21.7062 51.3459 22.124 49.9265 22.3839C51.3459 22.0714 52.6602 21.6008 53.8167 20.7617C54.8155 19.9748 55.7092 18.9247 56.0247 17.7681Z" fill="#00730C"/>
<path opacity="0.5" d="M52.7654 16.8665C52.45 18.444 51.3986 19.7568 50.1894 20.7536C48.8752 21.8554 47.2455 22.3253 45.6158 22.5847C46.4044 22.376 47.1404 22.2198 47.8763 21.9058C48.77 21.5396 49.5586 21.0679 50.2946 20.4908C51.3986 19.599 52.3974 18.2334 52.7654 16.8665Z" fill="#00730C"/>
<path opacity="0.5" d="M49.9265 16.4393C49.4534 18.1743 48.1391 19.5391 46.7197 20.5355C45.1952 21.6368 43.3552 22.001 41.5153 22.2074C43.3026 21.8957 44.9849 21.426 46.5094 20.4298C47.9814 19.381 49.3482 18.1215 49.9265 16.4393Z" fill="#00730C"/>
</g>
<path opacity="0.5" d="M60.125 22.669C59.4942 22.0364 58.6005 21.5609 57.7593 21.4013C56.7605 21.1886 55.8142 21.3443 54.8154 21.6052C55.7617 21.2916 56.7079 21.1359 57.6542 21.2958C58.5479 21.5082 59.4942 21.9312 60.125 22.669Z" fill="#00730C"/>
<path opacity="0.5" d="M62.6484 21.0966C61.8073 20.2531 60.6508 20.1979 59.5468 20.5111C60.5982 20.1452 61.8599 20.2006 62.6484 21.0966Z" fill="#00730C"/>
<path opacity="0.5" d="M57.7593 24.1366C56.9707 23.188 55.709 22.6065 54.5525 22.2883C53.1331 21.9695 51.7663 22.0717 50.3469 22.3316C51.7663 22.0191 53.1331 21.8117 54.5525 22.1831C55.7616 22.5014 57.0233 23.1355 57.7593 24.1366Z" fill="#00730C"/>
<path opacity="0.5" d="M55.0779 26.4979C54.3945 25.2339 53.1328 24.1789 51.8185 23.5448C50.9248 23.1219 50.0837 22.857 49.1374 22.6971C48.3489 22.5376 47.5603 22.5884 46.7718 22.5867C48.4014 22.4851 50.1363 22.5415 51.6608 23.334C53.0276 24.0209 54.3945 25.076 55.0779 26.4979Z" fill="#00730C"/>
<path opacity="0.5" d="M50.5046 26.9087C49.7161 25.3288 48.2441 24.2208 46.7196 23.4283C45.0899 22.583 43.2499 22.3685 41.41 22.2592C42.1985 22.261 42.9871 22.2627 43.7756 22.3697C44.7745 22.4771 45.7733 22.795 46.667 23.2178C48.2441 24.1156 49.7161 25.2236 50.5046 26.9087Z" fill="#00730C"/>
</g>
<path opacity="0.5" d="M66.5916 17.9488C66.4864 18.0012 64.8567 18.6815 64.699 18.7337C63.7528 19.0999 62.8065 19.466 61.8076 19.7794C59.7048 20.5113 57.5494 21.0851 55.3415 21.5537C53.081 22.0221 50.8204 22.438 48.5073 22.5907C46.4045 22.7438 44.1966 22.7389 42.0938 22.366C41.5155 22.2595 40.8846 22.1529 40.3064 22.0464C40.3064 22.0464 40.3064 22.0464 40.3064 21.9938C42.0412 22.1555 43.8286 22.3699 45.5634 22.3211C47.7714 22.2734 50.0319 22.1732 52.2398 21.8099C56.5506 21.1355 60.8088 20.0403 64.9093 18.5238C65.2773 18.3668 65.6453 18.2098 66.0658 18.1055C66.171 18.1057 66.4864 18.0012 66.5916 17.9488Z" fill="#00730C"/>
</g>
<path opacity="0.5" d="M27.5317 28.8569C27.5317 28.8569 27.5317 28.8043 27.5317 28.6991C27.5317 28.5939 27.5317 28.4886 27.5317 28.3308C27.5317 28.173 27.5842 28.0153 27.5842 27.8049C27.6368 27.6472 27.6368 27.4368 27.742 27.2266C27.7945 27.1215 27.7945 27.0689 27.8471 26.9638C27.8997 26.8587 27.9522 26.8062 27.9522 26.701C28.0048 26.6485 28.0574 26.5434 28.0574 26.4908C28.11 26.4383 28.1625 26.3332 28.2151 26.2807C28.3728 26.0706 28.5305 25.9132 28.5305 25.9132C28.5305 25.9132 28.4254 26.0707 28.2677 26.3334C28.2151 26.3859 28.1625 26.4384 28.1625 26.5436C28.11 26.5961 28.11 26.7013 28.0574 26.7538C28.0048 26.8589 28.0048 26.9115 27.9522 27.0166C27.9522 27.1218 27.8997 27.1743 27.8997 27.2795C27.8471 27.4372 27.8471 27.6476 27.8471 27.8055C27.8471 27.9633 27.8471 28.1211 27.8471 28.2789C27.8471 28.4367 27.8471 28.5419 27.8997 28.5947C27.8997 28.6473 27.8997 28.6999 27.8997 28.6999C27.8997 28.8051 27.8471 28.9102 27.7945 28.9101C27.6368 29.0149 27.5317 28.9621 27.5317 28.8569Z" fill="#00730C"/>
<g opacity="0.5">
<g opacity="0.5">
<path opacity="0.5" d="M25.0609 4.59996C24.3249 3.91445 23.5889 3.22894 22.8529 2.54343C22.5375 2.2797 22.2221 1.96337 21.8541 1.69952C21.6964 1.59396 21.5912 1.48852 21.4335 1.38295C21.3284 1.27751 21.1181 1.22444 21.0655 1.0665C21.1706 1.22455 21.1707 1.54019 21.2232 1.75073C21.2758 2.06648 21.3284 2.38223 21.3284 2.69787C21.3809 3.38186 21.4335 4.11846 21.4861 4.80246C21.5386 6.06512 20.5924 15.7425 20.6975 17.4787C20.8027 18.8467 21.0655 20.1625 21.6963 21.3738C22.4323 22.7958 23.5363 23.9556 24.798 24.9053C25.6917 25.5911 26.7957 26.2775 27.8471 26.5954C28.0048 26.6484 28.1099 26.596 28.3202 26.5439C28.7408 26.387 29.1088 26.1774 29.4768 25.9678C31.895 24.5528 33.5773 22.1366 33.735 19.2436C33.8927 15.9298 32.3156 12.7174 30.3705 10.188C29.6345 9.13421 25.6917 5.18002 25.0609 4.59996Z" fill="#00730C"/>
<path opacity="0.5" d="M20.6974 15.4271C20.6448 16.9 20.75 18.4258 21.118 19.847C21.9591 22.6896 24.2196 24.7988 26.7956 26.1197C27.1636 26.3309 27.5316 26.4895 27.9521 26.6483C28.1098 26.7013 28.0573 26.7011 28.0573 26.5433C28.0573 25.9647 28.0573 25.386 28.0047 24.7546C27.8995 22.4923 27.6893 20.2298 27.3213 18.0195C26.5327 13.5989 25.1659 9.22955 23.2734 5.12209C22.6425 3.70033 21.9065 2.38355 21.118 1.01404C21.486 2.64564 20.75 13.1126 20.6974 15.4271Z" fill="#00730C"/>
</g>
<g opacity="0.5">
<g opacity="0.5">
<path opacity="0.5" d="M22.0119 8.38092C23.0107 8.48834 23.8519 9.01627 24.5353 9.64905C25.2187 10.3344 25.6392 11.2297 25.9021 12.1772C25.5341 11.2294 25.1661 10.3869 24.3776 9.6487C23.7993 9.01615 22.9582 8.48823 22.0119 8.38092Z" fill="#00730C"/>
<path opacity="0.5" d="M22.0119 5.17211C23.2211 5.28 23.957 6.33376 24.2725 7.38657C23.9045 6.28103 23.1685 5.33249 22.0119 5.17211Z" fill="#00730C"/>
<path opacity="0.5" d="M22.0643 11.5901C23.3259 11.7508 24.4825 12.4898 25.3236 13.386C26.3225 14.4403 26.9007 15.7567 27.3213 17.1254C26.8482 15.7566 26.2699 14.4928 25.271 13.4385C24.3774 12.5948 23.2734 11.8032 22.0643 11.5901Z" fill="#00730C"/>
<path opacity="0.5" d="M21.5387 14.9032C23.1158 15.0645 24.5352 15.962 25.6918 17.0692C26.9009 18.2819 27.5317 19.8088 28.0049 21.4407C27.742 20.7036 27.4792 19.9665 27.1112 19.2292C26.6381 18.3865 26.1124 17.6488 25.4289 16.9634C24.3775 16.0142 22.9581 15.1694 21.5387 14.9032Z" fill="#00730C"/>
<path opacity="0.5" d="M21.4337 17.796C23.2211 18.1156 24.693 19.2236 25.8496 20.5413C27.1113 21.9119 27.6895 23.7544 28.1101 25.5439C27.5844 23.8068 26.9536 22.1746 25.797 20.7516C24.5879 19.4338 23.1685 18.2207 21.4337 17.796Z" fill="#00730C"/>
</g>
<path opacity="0.5" d="M26.4805 7.02299C25.9022 7.70559 25.5868 8.6518 25.4816 9.49326C25.3765 10.5451 25.6393 11.44 26.0073 12.3878C25.5868 11.4925 25.3239 10.5976 25.3765 9.59824C25.5342 8.70429 25.7971 7.70536 26.4805 7.02299Z" fill="#00730C"/>
<path opacity="0.5" d="M24.6404 4.65172C23.8518 5.54427 23.957 6.75444 24.3775 7.80749C23.957 6.80705 23.8518 5.54427 24.6404 4.65172Z" fill="#00730C"/>
<path opacity="0.5" d="M28.2151 9.18373C27.374 10.0762 26.9008 11.3903 26.7431 12.5472C26.5854 13.9673 26.8483 15.3356 27.2688 16.7043C26.7957 15.3355 26.4803 13.967 26.638 12.4944C26.7957 11.3374 27.2688 10.0759 28.2151 9.18373Z" fill="#00730C"/>
<path opacity="0.5" d="M30.8438 11.6094C29.6872 12.4485 28.7409 13.8142 28.2678 15.1283C27.9524 16.0219 27.7947 16.9158 27.7421 17.9152C27.6895 18.7042 27.7947 19.4935 27.8472 20.2827C27.5844 18.6513 27.4267 16.9676 28.0575 15.3382C28.6358 13.9191 29.4769 12.448 30.8438 11.6094Z" fill="#00730C"/>
<path opacity="0.5" d="M31.79 16.1357C30.3181 17.0793 29.3718 18.708 28.741 20.2848C28.0575 22.0193 28.0575 23.8605 28.1627 25.7019C28.0575 24.9126 27.9524 24.1233 28.005 23.3343C28.005 22.3348 28.2153 21.3357 28.5307 20.3369C29.2141 18.7076 30.1604 17.079 31.79 16.1357Z" fill="#00730C"/>
</g>
<path opacity="0.5" d="M21.0654 1.06655C21.1179 1.11928 21.959 2.69932 22.0642 2.85737C22.5373 3.75272 23.0105 4.70068 23.431 5.59591C24.3773 7.64964 25.2184 9.70314 25.9018 11.8089C26.6378 13.9674 27.2687 16.2308 27.6892 18.4938C28.0572 20.5989 28.3201 22.7563 28.2149 24.9129C28.1623 25.5441 28.1098 26.1226 28.1098 26.7539C28.1098 26.7539 28.1098 26.7539 28.0572 26.7538C28.0572 24.9652 28.0046 23.229 27.7944 21.4926C27.4789 19.2824 27.1109 17.0722 26.5327 14.914C25.3761 10.703 23.8516 6.59636 21.8539 2.64648C21.6962 2.27789 21.4859 1.90918 21.2756 1.54047C21.2756 1.43526 21.1179 1.17188 21.0654 1.06655Z" fill="#00730C"/>
</g>
<g opacity="0.5">
<g opacity="0.5">
<path opacity="0.5" d="M38.7817 7.10302C38.624 6.10316 38.4137 5.15579 38.2034 4.15581C38.0983 3.73473 37.9931 3.31365 37.888 2.89257C37.8354 2.73463 37.7829 2.52409 37.7303 2.36616C37.6777 2.20822 37.5726 2.05017 37.6252 1.89247C37.6252 2.1029 37.4149 2.36546 37.3097 2.52304C37.152 2.78572 36.9943 3.10101 36.8366 3.36369C36.4686 3.99414 36.1006 4.57199 35.7326 5.14984C35.0492 6.20045 28.5305 13.393 27.5842 14.9165C26.8482 16.0722 26.27 17.2808 26.0597 18.6481C25.7968 20.2257 26.0071 21.8044 26.4802 23.331C26.8482 24.4365 27.2688 25.5948 27.9522 26.5432C28.0573 26.7013 28.1625 26.7015 28.3728 26.7546C28.7933 26.8607 29.2139 26.9143 29.6345 26.9678C32.4207 27.237 35.2595 26.2964 37.0469 24.0909C39.1497 21.5705 39.7805 18.0473 39.728 14.7856C39.7805 13.4706 38.9394 7.99768 38.7817 7.10302Z" fill="#00730C"/>
<path opacity="0.5" d="M28.7933 13.2884C27.8996 14.4437 27.0585 15.7044 26.5328 17.1236C25.4814 19.9094 26.1123 22.9093 27.4265 25.5425C27.5842 25.9111 27.7945 26.2798 28.0574 26.6487C28.1625 26.7541 28.1099 26.754 28.2151 26.5964C28.5831 26.1238 28.8985 25.651 29.2139 25.1257C30.4756 23.2346 31.6321 21.2908 32.631 19.294C34.6287 15.2477 36.1006 10.9373 36.9943 6.52041C37.3097 4.99554 37.52 3.47043 37.6777 1.94521C37.0469 3.46938 30.2127 11.4503 28.7933 13.2884Z" fill="#00730C"/>
</g>
<g opacity="0.5">
<g opacity="0.5">
<path opacity="0.5" d="M34.1032 8.3547C34.8392 8.9876 35.2072 9.93532 35.4175 10.8827C35.5752 11.8826 35.3649 12.7764 34.9969 13.7225C35.2598 12.7762 35.47 11.8297 35.2598 10.7771C35.1021 9.93509 34.7341 8.98737 34.1032 8.3547Z" fill="#00730C"/>
<path opacity="0.5" d="M35.9955 5.78146C36.8892 6.57253 36.8892 7.83508 36.5212 8.88638C36.8367 7.83496 36.7841 6.62491 35.9955 5.78146Z" fill="#00730C"/>
<path opacity="0.5" d="M32.2105 10.981C33.1042 11.8247 33.6299 13.141 33.7876 14.3513C33.9979 15.8247 33.6825 17.1917 33.1568 18.5583C33.5774 17.1915 33.8402 15.8243 33.6825 14.4036C33.5248 13.1407 33.0517 11.8771 32.2105 10.981Z" fill="#00730C"/>
<path opacity="0.5" d="M29.7923 13.3427C31.0014 14.3975 31.5797 15.977 31.8425 17.5031C32.1054 19.1871 31.7374 20.8171 31.1591 22.394C31.3694 21.658 31.6323 20.8695 31.7374 20.0806C31.8426 19.1339 31.8425 18.187 31.6848 17.2398C31.4746 15.8715 30.7911 14.3444 29.7923 13.3427Z" fill="#00730C"/>
<path opacity="0.5" d="M28.0049 15.6009C29.2666 16.9188 29.7923 18.7086 29.95 20.4449C30.1602 22.3392 29.5294 24.1264 28.7934 25.8082C29.4243 24.0736 29.8448 22.4437 29.7923 20.6024C29.582 18.7607 29.1614 16.9712 28.0049 15.6009Z" fill="#00730C"/>
</g>
<path opacity="0.5" d="M38.4666 9.94254C37.5729 10.151 36.7843 10.6753 36.206 11.3579C35.5226 12.1455 35.1546 13.0389 34.8918 13.9853C35.1021 13.0388 35.4175 12.1452 36.0483 11.3575C36.7317 10.6752 37.5203 10.0983 38.4666 9.94254Z" fill="#00730C"/>
<path opacity="0.5" d="M38.3613 6.94405C37.2048 7.20451 36.5739 8.25523 36.3111 9.30677C36.5214 8.25512 37.2048 7.15191 38.3613 6.94405Z" fill="#00730C"/>
<path opacity="0.5" d="M38.5715 12.6783C37.3624 12.8861 36.2059 13.6726 35.3647 14.5124C34.3659 15.5623 33.7876 16.8236 33.3145 18.1903C33.7351 16.8235 34.2608 15.5095 35.3122 14.4597C36.1533 13.5673 37.3098 12.8333 38.5715 12.6783Z" fill="#00730C"/>
<path opacity="0.5" d="M39.2549 16.2047C37.8355 16.2016 36.2584 16.7242 35.1018 17.5633C34.3133 18.0876 33.6299 18.7174 33.0516 19.4526C32.5259 20.0827 32.1579 20.7657 31.7373 21.4487C32.4733 19.9773 33.367 18.559 34.7864 17.6152C36.1007 16.7238 37.6778 16.096 39.2549 16.2047Z" fill="#00730C"/>
<path opacity="0.5" d="M37.3625 20.4089C35.6277 20.2998 33.8929 21.0324 32.4735 21.9236C30.8964 22.9196 29.7924 24.3901 28.7936 25.9135C29.1616 25.2304 29.5821 24.5475 30.0553 23.9173C30.6861 23.1296 31.4221 22.4473 32.2632 21.8179C33.7878 20.927 35.47 20.1943 37.3625 20.4089Z" fill="#00730C"/>
</g>
<path opacity="0.5" d="M37.6252 1.94487C37.6252 2.05008 37.415 3.78561 37.3624 3.99592C37.2047 4.99508 37.047 5.99425 36.8367 6.99329C36.4161 9.20181 35.8379 11.3574 35.1544 13.5127C34.471 15.7206 33.6825 17.8757 32.6311 19.925C31.6848 21.8167 30.6334 23.7082 29.2665 25.3886C28.8986 25.8612 28.478 26.3337 28.11 26.8064C28.11 26.8064 28.11 26.8064 28.0574 26.8063C29.1088 25.3882 30.1077 23.9701 30.9488 22.3938C32.0002 20.4497 33.0516 18.453 33.8402 16.3505C35.4173 12.2507 36.6264 8.04494 37.3098 3.73277C37.3624 3.31204 37.415 2.94392 37.5201 2.5233C37.5727 2.3656 37.6252 2.05008 37.6252 1.94487Z" fill="#00730C"/>
</g>
</g>
<g opacity="0.5">
<g opacity="0.5">
<path opacity="0.5" d="M25.1135 52.5241C25.1135 52.5241 25.061 52.6818 25.0084 52.9447C24.9558 53.2076 24.8507 53.523 24.8507 53.8912C24.8507 54.0491 24.7981 54.2594 24.7981 54.4172C24.7981 54.5224 24.7981 54.575 24.7981 54.6276C24.7981 54.6802 24.7981 54.7854 24.7981 54.838C24.7981 54.8906 24.8507 54.9434 24.8507 54.996C24.8507 55.0486 24.8507 55.1012 24.9032 55.1013C24.9558 55.154 24.9558 55.2066 24.9558 55.2066C24.9558 55.2066 24.9558 55.154 24.9032 55.1013C24.9032 55.0487 24.8507 55.0486 24.8507 54.996C24.8507 54.9434 24.7981 54.8906 24.7981 54.838C24.7981 54.7854 24.7455 54.6801 24.7455 54.6275C24.7455 54.5749 24.7455 54.4697 24.7455 54.4171C24.7455 54.2593 24.7455 54.1014 24.7455 53.891C24.7981 53.2073 24.9558 52.5237 24.9558 52.5237C24.9558 52.4711 25.0084 52.4186 25.061 52.4713C25.1135 52.4189 25.1135 52.4715 25.1135 52.5241Z" fill="#00730C"/>
<g opacity="0.5">
<g opacity="0.5">
<path opacity="0.5" d="M26.7956 41.2703C26.5328 40.7963 26.2699 40.3748 26.0071 39.9008C25.9019 39.6901 25.7442 39.532 25.6391 39.3213C25.5865 39.216 25.5339 39.1633 25.4814 39.0579C25.4288 39.0052 25.3762 38.8999 25.3236 38.8472C25.3236 38.9524 25.3236 39.1102 25.2711 39.2153C25.2711 39.3731 25.2185 39.5308 25.1659 39.6885C25.1134 40.0566 25.0082 40.4247 24.9031 40.7927C24.7454 41.4236 22.7477 46.2063 22.5374 47.1001C22.3797 47.7837 22.3271 48.52 22.4323 49.2041C22.59 50.0462 22.958 50.7835 23.4837 51.4685C23.8517 51.9428 24.2722 52.4698 24.7979 52.7866C24.9031 52.8394 24.9556 52.8395 25.0608 52.8398C25.2711 52.8402 25.5339 52.7882 25.7442 52.7361C27.2162 52.3711 28.4253 51.4269 28.951 50.0077C29.5293 48.3782 29.2139 46.4837 28.6356 44.9042C28.4253 44.2725 27.0059 41.6916 26.7956 41.2703Z" fill="#00730C"/>
<path opacity="0.5" d="M22.9057 46.1013C22.6428 46.8372 22.4325 47.6258 22.4325 48.4149C22.4325 49.9931 23.2737 51.4153 24.3251 52.4697C24.4828 52.6279 24.6405 52.7861 24.7982 52.8916C24.8508 52.9443 24.8508 52.9443 24.8508 52.8391C24.9559 52.5237 25.0085 52.2608 25.1136 51.9454C25.429 50.7888 25.6393 49.6319 25.797 48.4223C26.1125 46.0558 26.0599 43.6358 25.6919 41.2677C25.5868 40.4784 25.429 39.6363 25.2188 38.8468C25.2713 39.7412 23.2737 44.9447 22.9057 46.1013Z" fill="#00730C"/>
</g>
<g opacity="0.5">
<g opacity="0.5">
<path opacity="0.5" d="M24.6929 42.7381C25.166 42.9496 25.534 43.3186 25.7969 43.7927C26.0597 44.2667 26.1123 44.7403 26.1123 45.2663C26.0597 44.7402 26.0072 44.214 25.7443 43.74C25.4815 43.3185 25.1135 42.9495 24.6929 42.7381Z" fill="#00730C"/>
<path opacity="0.5" d="M25.166 41.1086C25.7443 41.3729 25.9546 42.0046 25.9546 42.5833C25.9546 41.952 25.7443 41.3729 25.166 41.1086Z" fill="#00730C"/>
<path opacity="0.5" d="M24.1672 44.3679C24.7455 44.6322 25.2712 45.2121 25.534 45.7913C25.902 46.476 25.9546 47.2126 25.9546 48.0017C25.902 47.2651 25.7969 46.5284 25.4815 45.8438C25.2186 45.2119 24.7455 44.6322 24.1672 44.3679Z" fill="#00730C"/>
<path opacity="0.5" d="M23.431 45.9445C24.2196 46.2619 24.7979 46.947 25.2184 47.6845C25.639 48.4745 25.7441 49.369 25.7441 50.2633C25.7441 49.8425 25.6916 49.4215 25.639 49.0005C25.5339 48.5269 25.3761 48.0531 25.1133 47.579C24.6927 46.9468 24.1145 46.3143 23.431 45.9445Z" fill="#00730C"/>
<path opacity="0.5" d="M22.9054 47.4162C23.7465 47.839 24.3248 48.6293 24.7453 49.472C25.1659 50.3672 25.1659 51.3667 25.1133 52.3661C25.1133 51.4192 25.0608 50.4722 24.6928 49.577C24.2722 48.7344 23.7465 47.8916 22.9054 47.4162Z" fill="#00730C"/>
</g>
<path opacity="0.5" d="M27.1638 42.7437C26.7433 43.0058 26.4278 43.426 26.2701 43.8465C26.0598 44.3721 26.0598 44.8455 26.0598 45.4242C26.0073 44.898 26.0073 44.4246 26.165 43.8988C26.3753 43.4259 26.6907 42.9531 27.1638 42.7437Z" fill="#00730C"/>
<path opacity="0.5" d="M26.5857 41.2695C26.06 41.6365 25.9023 42.2149 25.9549 42.7936C25.9023 42.2149 26.0074 41.5838 26.5857 41.2695Z" fill="#00730C"/>
<path opacity="0.5" d="M27.6895 44.1126C27.1112 44.427 26.6906 45.0047 26.4278 45.5828C26.1123 46.266 26.0598 47.0024 26.0598 47.7914C26.0072 47.0022 26.0598 46.2659 26.3752 45.5827C26.638 44.952 27.1112 44.3744 27.6895 44.1126Z" fill="#00730C"/>
<path opacity="0.5" d="M28.6357 45.7454C27.8998 46.0068 27.2163 46.5314 26.7958 47.1617C26.4804 47.5819 26.2701 48.0022 26.1124 48.4753C25.9547 48.8432 25.9021 49.264 25.7969 49.6846C25.9021 48.7905 26.1124 47.9493 26.6381 47.214C27.1638 46.5313 27.8472 45.9541 28.6357 45.7454Z" fill="#00730C"/>
<path opacity="0.5" d="M28.4255 48.165C27.5318 48.4261 26.7959 49.0557 26.2176 49.7909C25.5867 50.5786 25.3239 51.5249 25.1136 52.4187C25.1662 51.998 25.2713 51.5774 25.3765 51.2094C25.5342 50.6837 25.797 50.2108 26.1124 49.7907C26.7433 49.0556 27.4793 48.3733 28.4255 48.165Z" fill="#00730C"/>
</g>
<path opacity="0.5" d="M25.3239 38.8469C25.3764 38.8996 25.5342 39.7943 25.5342 39.8995C25.6393 40.4258 25.7444 40.9521 25.797 41.5309C25.9547 42.6885 26.0599 43.8987 26.1124 45.0562C26.165 46.2662 26.1124 47.476 26.0073 48.7383C25.8496 49.8427 25.6919 50.9997 25.2713 52.0509C25.1662 52.3663 25.061 52.6291 24.9033 52.9444C25.1662 52.0507 25.429 51.1569 25.5867 50.2104C25.797 49.0535 25.9547 47.8439 25.9547 46.6866C26.0073 44.3721 25.8496 42.057 25.4816 39.7416C25.429 39.531 25.429 39.3206 25.3765 39.1101C25.3765 39.1101 25.3239 38.8995 25.3239 38.8469Z" fill="#00730C"/>
</g>
</g>
<g opacity="0.5">
<path opacity="0.5" d="M21.1179 50.6215C21.1179 50.6215 21.4859 50.9906 22.0641 51.6232C22.6424 52.2557 23.3258 53.0989 23.9567 53.9946C24.2721 54.4688 24.5349 54.9428 24.7978 55.3642C24.9555 55.575 25.0081 55.8382 25.1132 56.0488C25.2184 56.2595 25.2709 56.47 25.3761 56.6807C25.4812 56.8913 25.4812 57.0491 25.5338 57.2071C25.5863 57.365 25.5863 57.5228 25.5863 57.628C25.5863 57.8911 25.6389 57.9964 25.6389 57.9964C25.6389 57.9964 25.6389 57.8386 25.6389 57.6282C25.6389 57.523 25.6389 57.3651 25.5863 57.2072C25.5338 57.0493 25.5338 56.8388 25.4812 56.6283C25.4286 56.4178 25.3761 56.2072 25.2709 55.9966C25.1658 55.7859 25.1132 55.5228 25.0081 55.3121C24.7978 54.8382 24.5349 54.3115 24.2721 53.8375C23.1681 51.8886 21.6436 50.2019 21.6436 50.2019C21.5384 50.0964 21.3281 50.0433 21.223 50.1483C21.0127 50.3057 21.0127 50.5161 21.1179 50.6215Z" fill="#00730C"/>
<g opacity="0.5">
<g opacity="0.5">
<path opacity="0.5" d="M2.03466 30.326C1.92952 29.1159 1.82438 27.8531 1.71924 26.6429C1.66667 26.1167 1.66666 25.5907 1.66666 25.012C1.66666 24.8016 1.66666 24.5386 1.66666 24.3281C1.66666 24.1703 1.71923 23.9074 1.66666 23.7495C1.66666 23.8021 1.66666 23.8021 1.66666 23.7495C1.7718 24.0127 2.08723 24.2238 2.24494 24.4346C2.50779 24.7508 2.77065 25.0145 3.08607 25.2782C3.71691 25.9109 4.34776 26.4909 5.03117 27.0711C6.24029 28.0733 16.3864 34.6715 18.0686 36.1482C19.3303 37.2557 20.4343 38.5733 21.1177 40.1004C21.9588 41.8909 22.2217 43.8905 22.1691 45.8894C22.1165 47.3097 21.9588 48.8875 21.4857 50.2016C21.4331 50.4119 21.2754 50.4642 21.0651 50.6215C20.592 50.8835 20.1189 51.0929 19.5932 51.3021C16.3338 52.5574 12.6539 52.3389 9.70993 50.2807C6.34543 47.906 4.4529 43.8511 3.45406 40.0087C2.98093 38.2716 2.1398 31.431 2.03466 30.326Z" fill="#00730C"/>
<path opacity="0.5" d="M16.071 34.4604C17.5429 35.5684 18.9623 36.8341 20.0663 38.3095C22.2217 41.3128 22.4846 45.1537 21.8011 48.6767C21.696 49.2026 21.5909 49.6758 21.4332 50.2015C21.3806 50.3592 21.3806 50.3066 21.2229 50.201C20.6446 49.7263 20.0663 49.2516 19.5406 48.7769C17.3852 46.931 15.3876 44.9801 13.495 42.8717C9.76252 38.6549 6.55573 33.9659 4.03235 28.9627C3.19123 27.2249 2.40268 25.4871 1.71926 23.697C2.92838 25.3305 13.7579 32.7193 16.071 34.4604Z" fill="#00730C"/>
</g>
<g opacity="0.5">
<g opacity="0.5">
<path opacity="0.5" d="M8.08002 30.2871C7.3966 31.3377 7.29146 32.5474 7.34403 33.7575C7.50174 34.9678 8.08001 36.0212 8.76343 37.0222C8.08001 35.9686 7.55431 34.8627 7.44917 33.5999C7.34403 32.495 7.55432 31.2855 8.08002 30.2871Z" fill="#00730C"/>
<path opacity="0.5" d="M4.97861 27.755C4.19005 29.0158 4.61061 30.5423 5.39917 31.6488C4.66318 30.4898 4.24262 29.0686 4.97861 27.755Z" fill="#00730C"/>
<path opacity="0.5" d="M11.2342 32.7666C10.4457 34.08 10.288 35.8157 10.4457 37.3416C10.7085 39.1834 11.5497 40.7108 12.6011 42.1861C11.6548 40.6585 10.8663 39.1311 10.6034 37.342C10.3931 35.8685 10.4983 34.1328 11.2342 32.7666Z" fill="#00730C"/>
<path opacity="0.5" d="M14.8617 34.8791C13.8103 36.5602 13.6 38.6639 13.7577 40.5581C13.968 42.6628 15.0194 44.5063 16.2285 46.1924C15.7028 45.3495 15.1771 44.5067 14.8091 43.6116C14.3885 42.5059 14.0731 41.4005 13.9154 40.1902C13.7051 38.5063 14.0206 36.4554 14.8617 34.8791Z" fill="#00730C"/>
<path opacity="0.5" d="M17.8056 36.9896C16.7542 38.9336 16.7017 41.3008 17.0697 43.4058C17.4376 45.7213 18.8045 47.6708 20.2239 49.4625C18.9096 47.6184 17.8582 45.7223 17.3325 43.5116C16.9645 41.354 16.8068 39.039 17.8056 36.9896Z" fill="#00730C"/>
</g>
<path opacity="0.5" d="M3.29603 33.5906C4.40001 33.5404 5.55656 33.9112 6.50283 34.5446C7.6068 35.2309 8.29022 36.1793 8.97363 37.2856C8.39536 36.2322 7.71194 35.2311 6.7131 34.545C5.71427 33.9116 4.55772 33.4881 3.29603 33.5906Z" fill="#00730C"/>
<path opacity="0.5" d="M2.45499 29.9588C3.92696 29.9095 5.03094 30.9114 5.71436 32.1229C5.08351 30.9115 3.92696 29.8569 2.45499 29.9588Z" fill="#00730C"/>
<path opacity="0.5" d="M4.13708 36.9591C5.66162 36.8573 7.2913 37.387 8.55298 38.1263C10.0775 39.0766 11.2341 40.3943 12.2329 41.8694C11.2866 40.3418 10.1827 38.9716 8.60556 38.0212C7.34387 37.2293 5.66162 36.6995 4.13708 36.9591Z" fill="#00730C"/>
<path opacity="0.5" d="M4.45264 41.4313C6.13489 40.909 8.23771 41.0715 9.86739 41.7064C11.0239 42.1298 12.0228 42.658 12.969 43.344C13.7576 43.9244 14.4936 44.6099 15.177 45.2953C13.8102 43.7667 12.2331 42.3429 10.2354 41.6546C8.39542 41.0192 6.2926 40.7515 4.45264 41.4313Z" fill="#00730C"/>
<path opacity="0.5" d="M8.13261 45.8059C10.1829 45.1266 12.4959 45.3947 14.5462 46.0306C16.7541 46.7193 18.5941 48.1438 20.2764 49.6731C19.593 48.9877 18.9095 48.2497 18.0684 47.6692C17.0696 46.8779 15.913 46.3492 14.7565 45.8732C12.6011 45.2898 10.3406 44.9165 8.13261 45.8059Z" fill="#00730C"/>
</g>
<path opacity="0.5" d="M1.6668 23.6966C1.6668 23.8544 2.5605 25.8554 2.66564 26.0661C3.19135 27.2246 3.71704 28.3831 4.29532 29.5417C5.55701 32.017 6.92384 34.4399 8.44838 36.8105C10.0255 39.2339 11.7077 41.5523 13.6003 43.7133C15.3877 45.6637 20.6973 50.0418 21.3281 50.464L21.3281 50.4114C19.5933 49.0398 17.911 47.6683 16.3865 46.0342C14.4414 44.0308 12.5489 41.975 10.9192 39.7093C7.65983 35.3358 4.82103 30.6476 2.5605 25.6976C2.35022 25.2237 2.13993 24.7498 1.92965 24.3285C1.92965 24.2233 1.77194 23.8021 1.6668 23.6966Z" fill="#00730C"/>
</g>
</g>
</g>
</g>
<g opacity="0.5">
<g opacity="0.5">
<path opacity="0.5" d="M37.6776 81.0118C37.6776 81.0118 37.6251 81.0117 37.5725 81.0642C37.5199 81.064 37.4148 81.1164 37.3097 81.1688C37.2571 81.1687 37.2045 81.1685 37.1519 81.221C37.0994 81.2209 37.0468 81.2208 36.9417 81.2206C36.8891 81.2205 36.784 81.2202 36.7314 81.2201C36.6788 81.22 36.5737 81.2198 36.5211 81.2196C36.4685 81.2195 36.3634 81.2193 36.3108 81.1666C36.2582 81.1664 36.1531 81.1136 36.1005 81.1135C36.048 81.1134 35.9428 81.0605 35.8903 81.0604C35.8377 81.0603 35.7851 81.0076 35.7325 81.0075C35.5223 80.9544 35.3646 80.9014 35.3646 80.9014C35.3646 80.9014 35.5223 80.9544 35.7325 81.0601C35.7851 81.0602 35.8377 81.1129 35.8903 81.113C35.9428 81.1131 35.9954 81.1659 36.1005 81.1661C36.1531 81.1662 36.2582 81.2191 36.3108 81.2192C36.3634 81.2193 36.4685 81.2721 36.5211 81.2722C36.5737 81.2724 36.6788 81.2726 36.7314 81.3253C36.784 81.3254 36.8891 81.3257 36.9417 81.3258C36.9942 81.3259 37.0994 81.3261 37.1519 81.3262C37.2045 81.3264 37.3097 81.3266 37.3622 81.3267C37.4674 81.3269 37.5725 81.2746 37.6251 81.2747C37.6776 81.2748 37.7302 81.2223 37.7302 81.2223C37.7828 81.2224 37.7828 81.1698 37.7828 81.1172C37.8354 81.0121 37.7302 81.0119 37.6776 81.0118C37.7302 81.0119 37.6776 81.0118 37.6776 81.0118Z" fill="#00730C"/>
<g opacity="0.5">
<g opacity="0.5">
<path opacity="0.5" d="M26.1117 75.9359C25.9014 75.462 25.6912 74.9881 25.5335 74.5143C25.4283 74.3036 25.3757 74.0931 25.2706 73.8824C25.218 73.7771 25.218 73.7245 25.1655 73.6192C25.1655 73.5666 25.1129 73.4612 25.0603 73.4085C25.1129 73.5138 25.2706 73.5668 25.3757 73.567C25.5335 73.6726 25.6386 73.7254 25.7963 73.7784C26.1117 73.9369 26.4272 74.0954 26.7951 74.2015C27.3734 74.4132 32.2099 75.6338 33.051 76.0039C33.6819 76.2684 34.2601 76.6379 34.7858 77.1651C35.3641 77.7451 35.7321 78.4824 35.9424 79.2719C36.1001 79.8509 36.2578 80.4825 36.2578 81.0612C36.2578 81.1664 36.2052 81.2189 36.1527 81.2714C35.995 81.4289 35.8373 81.5863 35.6795 81.7438C34.5756 82.6883 33.1036 83.0532 31.6842 82.6293C30.0545 82.1522 28.7928 80.8342 27.8991 79.4645C27.5311 78.885 26.322 76.3573 26.1117 75.9359Z" fill="#00730C"/>
<path opacity="0.5" d="M32.1052 75.6859C32.8412 75.898 33.5246 76.2151 34.1555 76.69C35.3646 77.587 35.9955 79.0613 36.2057 80.5348C36.2583 80.7453 36.2583 80.9557 36.2583 81.1662C36.2583 81.2188 36.2583 81.2188 36.1532 81.2185C35.8903 81.1127 35.5749 81.0068 35.312 80.901C34.2606 80.4779 33.2092 79.9495 32.1578 79.4211C30.1601 78.2593 28.2676 76.8874 26.6379 75.253C26.0596 74.673 25.5339 74.0932 25.0608 73.5135C25.7968 73.8833 31.0013 75.3152 32.1052 75.6859Z" fill="#00730C"/>
</g>
<g opacity="0.5">
<g opacity="0.5">
<path opacity="0.5" d="M28.4775 75.0996C28.3723 75.5728 28.4775 76.0991 28.6352 76.5729C28.8455 77.0468 29.2135 77.3633 29.634 77.6798C29.2135 77.3633 28.898 76.9943 28.6878 76.5204C28.4775 76.0465 28.3723 75.5728 28.4775 75.0996Z" fill="#00730C"/>
<path opacity="0.5" d="M26.9528 74.5701C26.7951 75.1485 27.1631 75.7279 27.6362 76.0446C27.1631 75.6753 26.7951 75.1485 26.9528 74.5701Z" fill="#00730C"/>
<path opacity="0.5" d="M30.0544 75.6818C29.8967 76.3127 30.107 76.9971 30.3698 77.5763C30.6852 78.2609 31.211 78.7355 31.8418 79.1578C31.2635 78.683 30.7378 78.2084 30.4224 77.5239C30.107 76.9971 29.9493 76.3129 30.0544 75.6818Z" fill="#00730C"/>
<path opacity="0.5" d="M31.7365 76.0013C31.5262 76.7899 31.7365 77.6321 32.0519 78.3693C32.4199 79.1592 33.0507 79.7392 33.7341 80.2668C33.4187 80.0031 33.1033 79.7394 32.8404 79.4231C32.525 79.0542 32.2622 78.6854 32.0519 78.2115C31.7365 77.5795 31.5788 76.7374 31.7365 76.0013Z" fill="#00730C"/>
<path opacity="0.5" d="M33.1561 76.425C32.9984 77.319 33.3139 78.2666 33.7344 79.0566C34.2076 79.8994 34.9435 80.4797 35.7847 81.0076C35.0487 80.4799 34.3653 79.8471 33.8921 79.057C33.3664 78.2667 33.051 77.3717 33.1561 76.425Z" fill="#00730C"/>
</g>
<path opacity="0.5" d="M27.0579 77.0429C27.4785 76.8861 28.0042 76.8872 28.4248 76.9934C28.9505 77.1524 29.371 77.4163 29.739 77.7328C29.371 77.3637 29.003 77.0999 28.4773 76.9409C28.0042 76.8346 27.5311 76.8336 27.0579 77.0429Z" fill="#00730C"/>
<path opacity="0.5" d="M26.2693 75.7262C26.8476 75.5171 27.4259 75.7814 27.8464 76.1505C27.3733 75.7813 26.795 75.4643 26.2693 75.7262Z" fill="#00730C"/>
<path opacity="0.5" d="M27.8464 78.202C28.4247 77.9403 29.1081 77.9418 29.739 78.101C30.475 78.2605 31.0532 78.63 31.6841 79.0522C31.1058 78.5775 30.5275 78.208 29.7915 78.0485C29.1081 77.9418 28.3721 77.9402 27.8464 78.202Z" fill="#00730C"/>
<path opacity="0.5" d="M28.53 79.9396C29.1083 79.52 29.9494 79.3114 30.6854 79.3131C31.1585 79.3141 31.6316 79.4204 32.1048 79.5267C32.4728 79.6327 32.8407 79.8439 33.2087 80.0026C32.4728 79.5801 31.6842 79.2101 30.7905 79.2607C30.002 79.259 29.1608 79.4149 28.53 79.9396Z" fill="#00730C"/>
<path opacity="0.5" d="M30.5275 81.1539C31.2635 80.6295 32.1572 80.4211 33.0508 80.3704C33.9971 80.3199 34.8908 80.6376 35.7319 81.0077C35.3639 80.849 34.996 80.6378 34.628 80.5318C34.1548 80.3729 33.6291 80.3191 33.1034 80.2654C32.2097 80.3686 31.2635 80.5243 30.5275 81.1539Z" fill="#00730C"/>
</g>
<path opacity="0.5" d="M25.1129 73.4086C25.1129 73.4612 25.7437 74.1465 25.7963 74.1992C26.1643 74.5683 26.5323 74.9374 26.9003 75.3064C27.7414 76.0974 28.5825 76.8883 29.4762 77.5742C30.4225 78.3128 31.3688 78.9987 32.3676 79.5796C33.3139 80.1078 35.9424 81.1131 36.2578 81.1664C35.4167 80.8489 34.5756 80.5314 33.7344 80.1087C32.7356 79.5804 31.7368 79.0522 30.7905 78.3662C28.9505 77.0996 27.2157 75.6228 25.6912 73.9886C25.5335 73.8304 25.4283 73.6724 25.2706 73.5142C25.2706 73.5668 25.1655 73.4088 25.1129 73.4086Z" fill="#00730C"/>
</g>
<path opacity="0.5" d="M2.50812 111.656C2.50812 111.656 2.50813 111.603 2.5607 111.498C2.61327 111.393 2.66584 111.235 2.77098 111.025C2.98126 110.605 3.24412 109.974 3.61211 109.186C4.40066 107.609 5.55721 105.402 7.18689 102.828C7.97544 101.567 8.92171 100.202 9.97312 98.8364C11.0245 97.471 12.2336 96.1059 13.5479 94.7937C14.8622 93.4814 16.3867 92.2223 18.0164 91.1738L18.3318 90.964L18.6472 90.7543C18.8575 90.6496 19.0678 90.4922 19.2781 90.3875L19.4358 90.2826L19.5935 90.1778L19.9089 90.0206L20.5923 89.7065L21.2757 89.3924L21.6437 89.2354C21.7489 89.183 21.854 89.1307 22.0117 89.0784L22.6951 88.8169L23.0631 88.7125C23.1683 88.6601 23.326 88.6605 23.4311 88.6081C24.3774 88.3472 25.3762 88.1389 26.3751 87.9833C27.3739 87.8277 28.3728 87.6721 29.319 87.569C31.3167 87.363 33.2618 87.2621 35.1543 87.1611C37.0469 87.0601 38.8868 87.0116 40.6216 86.9102C42.3565 86.7562 43.9861 86.5494 45.4581 86.0792C46.1941 85.8178 46.8775 85.5563 47.4558 85.1368C48.0341 84.7698 48.5072 84.2974 48.8752 83.7722C49.2432 83.2469 49.506 82.7214 49.6637 82.2483C49.8215 81.7226 49.9792 81.2495 50.0317 80.8288C50.1895 79.9348 50.1895 79.251 50.1895 78.7775C50.1895 78.5145 50.1895 78.3567 50.1895 78.2514C50.1895 78.1462 50.1895 78.041 50.1895 78.041C50.1895 78.041 50.1895 78.0936 50.1895 78.2514C50.1895 78.3567 50.1895 78.5671 50.1895 78.7775C50.1895 79.251 50.1369 79.9347 49.9792 80.8287C49.9266 81.2494 49.7689 81.7225 49.6112 82.2482C49.4535 82.7213 49.138 83.2467 48.7701 83.7719C48.4021 84.2446 47.9289 84.717 47.3507 85.0839C46.7724 85.4509 46.089 85.765 45.4056 85.9739C43.9862 86.3916 42.3039 86.5983 40.5691 86.6997C38.8343 86.801 36.9943 86.797 35.1018 86.8454C33.2092 86.8938 31.2641 86.9947 29.2664 87.1481C28.2676 87.2511 27.2688 87.3541 26.2699 87.5097C25.2711 87.6653 24.2723 87.8209 23.2734 88.0817C23.1683 88.134 23.0106 88.1337 22.9054 88.1861L22.5374 88.2905L21.8015 88.5519C21.6963 88.6042 21.5386 88.6565 21.4335 88.7089L21.0655 88.8659L20.3821 89.18L19.6986 89.4941L19.3306 89.6511L19.1729 89.756L19.0152 89.8608C18.8049 89.9656 18.5947 90.1229 18.3318 90.2276L18.0164 90.4373L17.701 90.647C15.9661 91.6953 14.4416 92.9544 13.0748 94.2666C11.7079 95.5787 10.4463 96.9436 9.34228 98.3089C8.2383 99.6743 7.29203 101.04 6.4509 102.301C4.76865 104.822 3.55953 107.081 2.7184 108.658C2.29784 109.446 2.03499 110.076 1.82471 110.549C1.71957 110.76 1.667 110.917 1.61443 111.075C1.56186 111.18 1.56186 111.233 1.56186 111.233C1.45672 111.496 1.56186 111.811 1.82471 111.97C2.03499 112.076 2.35041 111.971 2.50812 111.656Z" fill="#00730C"/>
<path opacity="0.5" d="M31.6322 87.2587C31.6322 87.2587 31.6847 87.364 31.8424 87.3117C32.0002 87.2595 32.2104 87.2073 32.4207 87.05C32.6836 86.8928 32.9464 86.7355 33.2618 86.5258C33.5773 86.3161 33.9453 86.0539 34.3133 85.739C34.5235 85.5817 34.6812 85.4242 34.8915 85.2669C35.0492 85.1094 35.2595 84.8994 35.4698 84.6895C35.8378 84.3221 36.2058 83.8494 36.5738 83.3768C36.9418 82.9042 37.2572 82.3788 37.52 81.8533C37.7829 81.2752 38.0457 80.6972 38.2035 80.1188C38.4137 79.5406 38.4663 78.9095 38.5715 78.3311C38.5715 78.0154 38.624 77.7525 38.624 77.4369C38.624 77.1212 38.624 76.8582 38.624 76.5426C38.5715 76.2794 38.5715 75.9638 38.5189 75.7006C38.4663 75.4375 38.4137 75.1743 38.3612 74.9112C38.3086 74.6481 38.256 74.4375 38.2035 74.1744C38.1509 74.069 38.1509 73.9638 38.0983 73.8059C38.0457 73.7006 38.0458 73.5954 37.9932 73.49C37.9406 73.2795 37.8355 73.0688 37.7829 72.8583C37.7303 72.6477 37.6252 72.4897 37.5726 72.3318C37.52 72.1738 37.4675 72.0159 37.3623 71.8578C37.3098 71.6999 37.2572 71.5946 37.2046 71.4366C36.9943 70.9627 36.8366 70.6993 36.8366 70.6993C36.8366 70.6993 36.9418 70.9626 37.1521 71.4891C37.2046 71.5945 37.2572 71.7524 37.3098 71.9103C37.3623 72.0683 37.4149 72.2262 37.4675 72.3841C37.52 72.5421 37.5726 72.7526 37.6778 72.9107C37.7303 73.1212 37.7829 73.3317 37.8355 73.5423C37.888 73.6476 37.888 73.7528 37.9406 73.8581C37.9406 73.9634 37.9932 74.0687 37.9932 74.2265C38.0458 74.437 38.0983 74.7002 38.1509 74.9633C38.2035 75.2265 38.2035 75.4895 38.256 75.7527C38.256 76.0157 38.3086 76.2788 38.3086 76.5945C38.3086 76.8575 38.3086 77.1731 38.3086 77.4362C38.3086 77.6992 38.256 78.0147 38.2035 78.3302C38.0983 78.9087 37.9932 79.4871 37.7829 80.0653C37.6252 80.6436 37.3623 81.1691 37.0469 81.6945C36.7841 82.2199 36.4161 82.6926 36.1006 83.1127C35.7327 83.5327 35.3647 83.9528 34.9967 84.3202C34.839 84.4777 34.6287 84.635 34.4184 84.845C34.2081 85.0023 34.0504 85.1598 33.8927 85.2647C33.5247 85.5269 33.2093 85.7892 32.8939 85.9463C32.5784 86.1561 32.3156 86.3133 32.0527 86.4179C31.8424 86.5227 31.6322 86.6274 31.527 86.6798C31.4219 86.7321 30.7385 87.0463 30.7385 87.0463C30.5282 87.151 30.9487 87.2046 31.159 87.205C31.4219 87.3108 31.4745 87.3635 31.6322 87.2587Z" fill="#00730C"/>
<g opacity="0.5">
<g opacity="0.5">
<path opacity="0.5" d="M34.3656 63.6446C34.5233 63.1715 34.681 62.6984 34.8913 62.2254C34.9439 62.0151 35.049 61.8049 35.1542 61.5947C35.2067 61.4896 35.2067 61.437 35.2593 61.3319C35.3119 61.2794 35.3644 61.1743 35.3644 61.1217C35.3644 61.2269 35.417 61.3849 35.4696 61.4902C35.5222 61.6481 35.5747 61.8061 35.6273 61.964C35.785 62.28 35.8901 62.6485 36.0479 62.9645C36.3107 63.5437 39.0444 67.7056 39.4124 68.5481C39.6752 69.18 39.8855 69.8643 39.8855 70.5482C39.8855 71.3899 39.6752 72.1785 39.3072 72.9142C39.0444 73.4397 38.7289 74.0177 38.3084 74.4376C38.2558 74.4901 38.2032 74.4899 38.0981 74.4897C37.8878 74.4892 37.6775 74.4888 37.4147 74.4882C35.9953 74.4324 34.6285 73.6929 33.8925 72.4288C33.0513 70.9539 32.9988 69.1652 33.2616 67.535C33.3668 66.7988 34.2079 64.0651 34.3656 63.6446Z" fill="#00730C"/>
<path opacity="0.5" d="M38.9391 67.5477C39.3071 68.2324 39.6225 68.917 39.7802 69.6539C40.0956 71.1275 39.5699 72.6519 38.6762 73.8599C38.5711 74.0175 38.4134 74.2275 38.2557 74.385C38.2031 74.4375 38.2031 74.4375 38.1505 74.3322C37.9928 74.0688 37.8877 73.8055 37.73 73.5421C37.2568 72.489 36.7837 71.4358 36.4683 70.3304C35.7849 68.1194 35.3643 65.8564 35.2592 63.5415C35.2066 62.7523 35.2066 61.9632 35.2592 61.1743C35.522 61.9113 38.3082 66.4942 38.9391 67.5477Z" fill="#00730C"/>
</g>
<g opacity="0.5">
<g opacity="0.5">
<path opacity="0.5" d="M36.626 64.6494C36.2054 64.9115 35.9426 65.3843 35.7849 65.8048C35.6271 66.278 35.6797 66.8041 35.7849 67.2778C35.7323 66.7516 35.6797 66.2781 35.8374 65.7524C35.9951 65.3319 36.258 64.9116 36.626 64.6494Z" fill="#00730C"/>
<path opacity="0.5" d="M35.8899 63.175C35.3642 63.4894 35.259 64.1731 35.3642 64.6994C35.259 64.1731 35.3642 63.542 35.8899 63.175Z" fill="#00730C"/>
<path opacity="0.5" d="M37.3621 66.1242C36.8364 66.4913 36.4684 67.1217 36.3107 67.7C36.1004 68.436 36.1529 69.12 36.3107 69.8569C36.2055 69.1202 36.1529 68.4362 36.3632 67.7001C36.5735 67.1219 36.8889 66.4914 37.3621 66.1242Z" fill="#00730C"/>
<path opacity="0.5" d="M38.4133 67.4943C37.7299 67.9662 37.3093 68.7018 37.0465 69.4377C36.7836 70.2788 36.8362 71.1206 37.0465 71.9627C36.9939 71.5418 36.9414 71.1734 36.9414 70.7526C36.9414 70.2791 37.0465 69.8059 37.1516 69.3327C37.3619 68.6493 37.8351 67.9664 38.4133 67.4943Z" fill="#00730C"/>
<path opacity="0.5" d="M39.1494 68.7583C38.4134 69.3354 37.9929 70.1761 37.7826 71.07C37.5197 72.0163 37.73 72.9637 37.9403 73.8584C37.7826 72.9638 37.6774 72.0692 37.8352 71.1227C38.098 70.2816 38.466 69.3881 39.1494 68.7583Z" fill="#00730C"/>
</g>
<path opacity="0.5" d="M34.2604 65.0651C34.6809 65.2238 35.0489 65.5929 35.3118 65.9617C35.5746 66.3831 35.7323 66.9095 35.7849 67.3831C35.7323 66.9095 35.6798 66.3834 35.4169 65.9619C35.1015 65.593 34.7335 65.2239 34.2604 65.0651Z" fill="#00730C"/>
<path opacity="0.5" d="M34.5759 63.5928C35.1541 63.8045 35.3644 64.3837 35.417 64.9624C35.3644 64.3837 35.1541 63.8045 34.5759 63.5928Z" fill="#00730C"/>
<path opacity="0.5" d="M33.9975 66.4849C34.5758 66.6966 35.1015 67.1712 35.4695 67.6981C35.8901 68.3303 36.1003 69.0146 36.2581 69.6988C36.1529 68.9621 35.9952 68.2779 35.5221 67.6456C35.1541 67.1187 34.6284 66.6441 33.9975 66.4849Z" fill="#00730C"/>
<path opacity="0.5" d="M33.3664 68.2196C34.1024 68.3264 34.8383 68.6963 35.364 69.2235C35.732 69.54 35.9949 69.9088 36.2577 70.3302C36.468 70.699 36.6257 71.0675 36.7834 71.4361C36.5206 70.6465 36.1526 69.8039 35.5218 69.2239C34.9435 68.6965 34.2075 68.2741 33.3664 68.2196Z" fill="#00730C"/>
<path opacity="0.5" d="M34.0502 70.483C34.9439 70.5901 35.785 71.0655 36.4159 71.6455C37.1519 72.2784 37.5724 73.1211 37.9404 73.9636C37.7827 73.595 37.6776 73.2265 37.4673 72.8578C37.2044 72.3838 36.889 72.0148 36.521 71.6458C35.8376 71.013 34.9965 70.5377 34.0502 70.483Z" fill="#00730C"/>
</g>
<path opacity="0.5" d="M35.3117 61.1219C35.3117 61.1745 35.2591 62.0687 35.2591 62.1739C35.2591 62.7 35.2591 63.226 35.3117 63.7522C35.3642 64.9097 35.4694 66.0672 35.6797 67.1724C35.89 68.3302 36.1002 69.488 36.4682 70.5935C36.7836 71.6464 37.2042 72.6994 37.7825 73.595C37.9402 73.8584 38.0979 74.1218 38.2556 74.3851C37.8351 73.5951 37.4145 72.7525 37.0991 71.9101C36.7311 70.8572 36.3631 69.7516 36.1002 68.6463C35.6271 66.4358 35.3117 64.2257 35.3117 61.9636C35.3117 61.7532 35.3117 61.5428 35.3117 61.3323C35.3117 61.3323 35.3117 61.1745 35.3117 61.1219Z" fill="#00730C"/>
</g>
<path opacity="0.5" d="M37.4147 81.8004C37.4147 81.8004 37.4147 81.8004 37.4673 81.8005C37.5199 81.8006 37.5725 81.7481 37.625 81.7482C37.6776 81.6957 37.7827 81.696 37.8353 81.6435C37.8879 81.591 37.993 81.5386 38.0982 81.4862C38.1507 81.4337 38.1507 81.4338 38.2033 81.3813C38.2559 81.3288 38.2559 81.3288 38.3084 81.2763C38.361 81.2238 38.361 81.2238 38.4136 81.1713C38.4661 81.1188 38.4661 81.1188 38.4661 81.0662C38.5187 80.9611 38.5713 80.856 38.5713 80.856C38.5713 80.856 38.5187 80.9611 38.4136 81.0661C38.4136 81.1187 38.361 81.1186 38.361 81.1712C38.3084 81.2237 38.3084 81.2237 38.2559 81.2762C38.2033 81.3286 38.2033 81.3287 38.1507 81.3811C38.0982 81.4336 38.0982 81.4336 38.0456 81.4861C37.993 81.5386 37.8879 81.591 37.7827 81.6434C37.6776 81.6957 37.625 81.6956 37.5724 81.7481C37.5199 81.748 37.4673 81.8005 37.4147 81.8004C37.3622 81.8002 37.3622 81.8002 37.3622 81.8002C37.3096 81.8001 37.257 81.8526 37.257 81.9052C37.3096 81.8001 37.3622 81.8002 37.4147 81.8004Z" fill="#00730C"/>
<g opacity="0.5">
<g opacity="0.5">
<path opacity="0.5" d="M49.4536 78.4602C49.9267 78.6717 50.3999 78.8832 50.8204 79.1471C51.0307 79.2528 51.1884 79.3584 51.3987 79.464C51.5038 79.5169 51.5564 79.5696 51.6615 79.6224C51.7141 79.6752 51.8193 79.728 51.8718 79.7281C51.7667 79.7279 51.609 79.7802 51.5038 79.7799C51.3461 79.8322 51.1884 79.8318 51.0307 79.8841C50.6627 79.9885 50.3473 80.093 49.9793 80.1974C49.401 80.4065 44.9325 82.6587 44.0914 82.9198C43.4606 83.1289 42.7246 83.2324 42.0412 83.1783C41.2526 83.0714 40.464 82.8066 39.7806 82.3316C39.3075 82.0149 38.7818 81.6455 38.4138 81.1713C38.3612 81.1185 38.3612 81.0659 38.3612 80.9081C38.3612 80.6977 38.4138 80.4874 38.4138 80.2243C38.6241 78.8044 39.4652 77.5438 40.832 76.9155C42.3566 76.235 44.1966 76.3969 45.7737 76.8213C46.4045 77.1383 49.033 78.2489 49.4536 78.4602Z" fill="#00730C"/>
<path opacity="0.5" d="M45.0902 82.5538C44.4068 82.868 43.6708 83.0768 42.8823 83.1802C41.3578 83.3347 39.9384 82.595 38.8344 81.6457C38.6767 81.4875 38.5189 81.3819 38.3612 81.2238C38.3087 81.1711 38.3087 81.171 38.4138 81.1713C38.6767 81.0667 38.9921 80.9621 39.2549 80.8575C40.3589 80.4917 41.4629 80.1785 42.6194 79.9181C44.88 79.4496 47.1931 79.2969 49.5062 79.4599C50.2947 79.5142 51.0833 79.6212 51.8718 79.7282C51.0307 79.7789 46.1417 82.0827 45.0902 82.5538Z" fill="#00730C"/>
</g>
<g opacity="0.5">
<g opacity="0.5">
<path opacity="0.5" d="M48.1919 80.6143C47.9816 80.1404 47.5611 79.8764 47.0879 79.6123C46.6148 79.4009 46.1416 79.3998 45.6159 79.4512C46.1416 79.4524 46.6148 79.4535 47.0879 79.7175C47.5611 79.8764 47.9816 80.193 48.1919 80.6143Z" fill="#00730C"/>
<path opacity="0.5" d="M49.7166 80.039C49.4537 79.5124 48.8229 79.3006 48.2446 79.3519C48.8229 79.3532 49.4011 79.5123 49.7166 80.039Z" fill="#00730C"/>
<path opacity="0.5" d="M46.6675 81.1897C46.3521 80.6103 45.7738 80.1882 45.1955 79.9765C44.5121 79.7119 43.7761 79.6577 43.0401 79.7087C43.7761 79.7103 44.4595 79.7118 45.1955 80.0291C45.7212 80.2407 46.2995 80.6628 46.6675 81.1897Z" fill="#00730C"/>
<path opacity="0.5" d="M45.1428 82.0805C44.7748 81.3432 44.0914 80.8682 43.3554 80.4984C42.5669 80.1284 41.6732 80.1264 40.832 80.1771C41.2526 80.1781 41.6206 80.1263 42.0412 80.2324C42.5143 80.2861 42.9874 80.445 43.408 80.6037C44.144 80.921 44.7748 81.4484 45.1428 82.0805Z" fill="#00730C"/>
<path opacity="0.5" d="M43.8286 82.6561C43.3555 81.866 42.5144 81.3907 41.6732 81.0732C40.7795 80.7556 39.7807 80.806 38.887 80.9092C39.8333 80.8061 40.6744 80.8605 41.6207 81.1257C42.4618 81.4432 43.3029 81.9185 43.8286 82.6561Z" fill="#00730C"/>
</g>
<path opacity="0.5" d="M47.9817 78.2465C47.7714 78.6669 47.4034 78.9817 46.9829 79.1912C46.5097 79.4532 46.0366 79.5047 45.5109 79.5036C45.984 79.5046 46.5097 79.5058 46.9303 79.2963C47.4034 78.9817 47.7714 78.6669 47.9817 78.2465Z" fill="#00730C"/>
<path opacity="0.5" d="M49.4536 78.6708C49.1908 79.1963 48.5599 79.4053 48.0342 79.4041C48.5599 79.4053 49.1908 79.2489 49.4536 78.6708Z" fill="#00730C"/>
<path opacity="0.5" d="M46.6672 77.8229C46.4044 78.401 45.8787 78.8733 45.353 79.1351C44.7221 79.502 43.9861 79.6056 43.2502 79.6565C43.9861 79.6582 44.7221 79.5546 45.353 79.1877C45.8787 78.8733 46.4044 78.401 46.6672 77.8229Z" fill="#00730C"/>
<path opacity="0.5" d="M44.9851 76.9775C44.8274 77.6611 44.3543 78.3965 43.776 78.8687C43.408 79.1835 42.9874 79.4456 42.5669 79.6551C42.1989 79.8121 41.8309 79.9165 41.4103 80.0208C42.2514 79.8648 43.0926 79.6036 43.7234 79.0264C44.3017 78.5016 44.8274 77.8189 44.9851 76.9775Z" fill="#00730C"/>
<path opacity="0.5" d="M42.6721 77.393C42.4618 78.2869 41.9361 79.0222 41.2527 79.6519C40.5693 80.2817 39.6756 80.648 38.7819 80.909C39.2025 80.8047 39.5705 80.7003 39.9385 80.5433C40.4116 80.334 40.8322 80.0719 41.2527 79.7572C41.9361 79.0748 42.5144 78.3396 42.6721 77.393Z" fill="#00730C"/>
</g>
<path opacity="0.5" d="M51.8718 79.6756C51.8193 79.6755 50.9256 79.5157 50.8204 79.5155C50.2947 79.4617 49.769 79.4079 49.2433 79.3542C48.0868 79.299 46.9302 79.2964 45.8262 79.3466C44.6697 79.3966 43.4606 79.4991 42.304 79.7596C41.2526 79.9677 40.1486 80.2283 39.1498 80.6995C38.8869 80.8568 38.5715 80.9613 38.3087 81.1185C39.1498 80.8047 39.9909 80.491 40.8846 80.2825C41.9886 80.0219 43.0926 79.7614 44.2491 79.6587C46.4571 79.4006 48.7176 79.4056 50.9781 79.621C51.1884 79.6215 51.3987 79.6746 51.609 79.675C51.609 79.675 51.7667 79.6754 51.8718 79.6756Z" fill="#00730C"/>
</g>
<g opacity="0.5">
<g opacity="0.5">
<path opacity="0.5" d="M45.6684 72.4021C46.1941 72.298 46.6673 72.1939 47.193 72.1424C47.4033 72.0903 47.6135 72.0907 47.8764 72.0387C47.9815 72.039 48.0341 72.0391 48.1392 71.9867C48.1918 71.9868 48.297 71.987 48.4021 71.9873C48.297 72.0396 48.2444 72.1447 48.1392 72.2497C48.0341 72.3547 47.929 72.5123 47.8238 72.6173C47.6135 72.8798 47.4033 73.195 47.193 73.5102C46.825 74.0354 44.617 78.502 44.0388 79.2372C43.6182 79.815 43.1451 80.2874 42.5668 80.6543C41.8834 81.0736 41.0422 81.2822 40.2537 81.3331C39.6754 81.3844 39.0446 81.383 38.4663 81.2239C38.3612 81.2237 38.3612 81.1711 38.3086 81.0657C38.2034 80.9077 38.0457 80.6969 37.9406 80.4862C37.2572 79.2222 37.2046 77.6965 37.9406 76.383C38.7817 74.9119 40.3063 73.9683 41.8834 73.3932C42.4616 73.0788 45.1953 72.4536 45.6684 72.4021Z" fill="#00730C"/>
<path opacity="0.5" d="M44.6169 78.292C44.2489 78.9224 43.7757 79.6053 43.1975 80.0774C42.0409 81.0744 40.5164 81.334 39.0444 81.2256C38.8341 81.2251 38.6238 81.172 38.4136 81.1189C38.361 81.1188 38.361 81.1188 38.4136 81.0137C38.5713 80.751 38.729 80.4884 38.8867 80.2783C39.5175 79.3328 40.2535 78.3875 41.0421 77.5476C42.5666 75.815 44.354 74.3459 46.2991 73.0877C46.9825 72.6684 47.666 72.2491 48.3494 71.9349C47.7185 72.5122 45.1951 77.2411 44.6169 78.292Z" fill="#00730C"/>
</g>
<g opacity="0.5">
<g opacity="0.5">
<path opacity="0.5" d="M45.9314 74.8754C45.4583 74.664 44.9851 74.6629 44.4594 74.7143C43.9863 74.8185 43.5657 75.0806 43.1977 75.448C43.6183 75.1333 44.0389 74.8712 44.512 74.7671C45.0377 74.663 45.5108 74.6641 45.9314 74.8754Z" fill="#00730C"/>
<path opacity="0.5" d="M46.825 73.4571C46.2992 73.1929 45.6684 73.4019 45.2478 73.7692C45.721 73.4546 46.2992 73.2455 46.825 73.4571Z" fill="#00730C"/>
<path opacity="0.5" d="M45.0376 76.2412C44.4593 75.9769 43.7233 75.9752 43.1451 76.1318C42.4091 76.288 41.8308 76.7075 41.2525 77.2323C41.8308 76.7601 42.4091 76.3932 43.1451 76.1844C43.7759 76.0279 44.4593 76.0295 45.0376 76.2412Z" fill="#00730C"/>
<path opacity="0.5" d="M44.3542 77.818C43.6183 77.4481 42.7771 77.4463 41.9886 77.6023C41.1475 77.7583 40.4115 78.2827 39.7806 78.86C40.096 78.5977 40.4115 78.3353 40.7795 78.1783C41.2 77.9688 41.6732 77.7595 42.1463 77.6553C42.8297 77.499 43.7234 77.5536 44.3542 77.818Z" fill="#00730C"/>
<path opacity="0.5" d="M43.6707 79.0789C42.8295 78.7088 41.8833 78.8119 40.9896 79.0729C40.0433 79.3339 39.3073 79.9635 38.6765 80.646C39.3599 80.0162 40.0959 79.4918 40.9896 79.1782C41.8307 78.9696 42.777 78.8139 43.6707 79.0789Z" fill="#00730C"/>
</g>
<path opacity="0.5" d="M44.354 73.0307C44.4066 73.5042 44.3014 73.9775 44.0911 74.3978C43.8283 74.8707 43.5129 75.1857 43.0923 75.5004C43.5129 75.2383 43.8809 74.9234 44.0911 74.4504C44.354 74.0302 44.4591 73.557 44.354 73.0307Z" fill="#00730C"/>
<path opacity="0.5" d="M45.8259 72.5605C45.9311 73.1394 45.5631 73.6646 45.0899 73.9792C45.5631 73.6646 45.9311 73.1394 45.8259 72.5605Z" fill="#00730C"/>
<path opacity="0.5" d="M43.0397 73.5011C43.1448 74.1326 43.0397 74.8163 42.7768 75.3943C42.4614 76.0775 41.9883 76.6025 41.41 77.0747C41.9883 76.6025 42.514 76.1302 42.8294 75.4471C43.0922 74.8164 43.1974 74.1327 43.0397 73.5011Z" fill="#00730C"/>
<path opacity="0.5" d="M41.2523 73.8128C41.5152 74.4973 41.5677 75.3391 41.41 76.0226C41.3049 76.4959 41.1472 76.9164 40.8843 77.3892C40.674 77.757 40.4112 78.0721 40.2009 78.3872C40.7792 77.7572 41.3049 77.0745 41.4626 76.1806C41.5677 75.4443 41.6203 74.5501 41.2523 73.8128Z" fill="#00730C"/>
<path opacity="0.5" d="M39.6225 75.5452C39.9905 76.3351 39.9905 77.3346 39.8328 78.176C39.6751 79.1225 39.1494 79.9105 38.6237 80.6984C38.8865 80.3833 39.1494 80.0683 39.3597 79.7005C39.6225 79.2802 39.8328 78.7546 39.9379 78.2814C40.0431 77.3348 40.0431 76.3878 39.6225 75.5452Z" fill="#00730C"/>
</g>
<path opacity="0.5" d="M48.3494 71.9349C48.2968 71.9348 47.5082 72.4065 47.4031 72.4589C46.93 72.7209 46.5094 72.983 46.0888 73.2977C45.1426 73.9268 44.1963 74.6086 43.3026 75.2905C42.4089 76.025 41.5152 76.8121 40.7267 77.7047C39.9907 78.4921 39.3073 79.3849 38.7816 80.3307C38.6238 80.5934 38.4661 80.856 38.361 81.1714C38.8341 80.436 39.3598 79.6481 39.9381 78.9655C40.6741 78.0728 41.4101 77.2327 42.2512 76.4455C43.8809 74.9236 45.6683 73.5598 47.6134 72.4068C47.7711 72.3019 47.9814 72.1971 48.1391 72.0923C48.1391 72.0923 48.2968 71.9874 48.3494 71.9349Z" fill="#00730C"/>
</g>
</g>
<g opacity="0.5">
<g opacity="0.5">
<path opacity="0.5" d="M26.5851 87.3527C26.5851 87.3527 26.5325 87.4052 26.4274 87.5102C26.3223 87.5626 26.1646 87.6674 26.0068 87.7723C25.9543 87.8248 25.8491 87.8245 25.7966 87.877C25.744 87.8769 25.744 87.9295 25.6914 87.9294C25.6389 87.9293 25.6388 87.9293 25.5863 87.9818C25.5337 87.9817 25.5337 87.9817 25.4811 87.9815C25.4286 87.9814 25.4286 87.9814 25.4286 87.9814C25.376 87.9813 25.376 87.9813 25.376 87.9813C25.376 87.9813 25.376 87.9813 25.4286 87.9814L25.4811 87.9815C25.4811 87.9815 25.5337 87.9817 25.5863 87.9818C25.6388 87.9819 25.6389 87.9819 25.6914 87.982C25.744 87.9821 25.744 87.9821 25.7966 87.9296C25.9017 87.9299 25.9543 87.8774 26.0594 87.825C26.3748 87.6679 26.6903 87.4582 26.6903 87.4582C26.6903 87.4582 26.7428 87.4057 26.6903 87.4056C26.6377 87.3528 26.6377 87.3528 26.5851 87.3527Z" fill="#00730C"/>
<g opacity="0.5">
<g opacity="0.5">
<path opacity="0.5" d="M31.6319 84.4704C31.8947 84.5236 32.1576 84.5242 32.4204 84.5774C32.5256 84.5776 32.6307 84.6305 32.7884 84.6308C32.841 84.6309 32.8936 84.631 32.9461 84.6838C32.9987 84.6839 33.0513 84.7366 33.0513 84.7366C32.9987 84.7365 32.9461 84.789 32.8936 84.8415C32.841 84.894 32.7358 84.9463 32.6833 84.9988C32.5256 85.1037 32.3679 85.2086 32.2101 85.3134C31.9473 85.5233 30.0548 87.3603 29.6342 87.6224C29.3188 87.8321 29.0033 87.9892 28.6354 88.041C28.2148 88.1453 27.7942 88.0917 27.3737 87.9856C27.0582 87.8797 26.7428 87.7738 26.48 87.6154C26.4274 87.5626 26.4274 87.5626 26.4274 87.51C26.3748 87.4047 26.3748 87.2995 26.3748 87.1417C26.2697 86.405 26.48 85.6163 27.1108 85.0917C27.7942 84.5145 28.7405 84.3062 29.5816 84.3081C29.897 84.2562 31.369 84.4172 31.6319 84.4704Z" fill="#00730C"/>
<path opacity="0.5" d="M30.0548 87.2549C29.7394 87.5172 29.424 87.7269 29.056 87.8839C28.32 88.1979 27.4789 88.0383 26.7429 87.721C26.6378 87.6682 26.5326 87.6153 26.4275 87.5625C26.3749 87.5624 26.4275 87.5625 26.4275 87.5099C26.5326 87.4049 26.6903 87.3 26.7955 87.195C27.2686 86.8279 27.7943 86.5134 28.3726 86.199C29.424 85.6227 30.5805 85.1518 31.7897 84.8915C32.2102 84.7872 32.6308 84.7355 32.9988 84.6837C32.6308 84.8933 30.528 86.8351 30.0548 87.2549Z" fill="#00730C"/>
</g>
<g opacity="0.5">
<g opacity="0.5">
<path opacity="0.5" d="M31.3164 85.7322C31.1061 85.5213 30.8958 85.4682 30.633 85.415C30.3701 85.3618 30.1073 85.4664 29.8444 85.5711C30.1073 85.4664 30.3701 85.4144 30.633 85.4676C30.8958 85.4682 31.1587 85.574 31.3164 85.7322Z" fill="#00730C"/>
<path opacity="0.5" d="M31.9998 85.2078C31.7895 84.9969 31.4215 84.9961 31.1586 85.1008C31.474 84.9962 31.7895 84.9969 31.9998 85.2078Z" fill="#00730C"/>
<path opacity="0.5" d="M30.6331 86.3094C30.3702 86.0983 30.0548 85.9398 29.6868 85.939C29.2662 85.8855 28.8982 85.9899 28.5302 86.1469C28.8982 86.0425 29.2662 85.9381 29.6342 85.9915C30.0548 85.9398 30.4228 86.0985 30.6331 86.3094Z" fill="#00730C"/>
<path opacity="0.5" d="M30.0022 86.9391C29.6868 86.6228 29.2662 86.464 28.8457 86.4105C28.3725 86.3568 27.952 86.4611 27.5314 86.6706C27.7417 86.6185 27.952 86.5137 28.1622 86.5142C28.4251 86.4622 28.6879 86.4628 28.9508 86.5159C29.3188 86.5168 29.7393 86.6755 30.0022 86.9391Z" fill="#00730C"/>
<path opacity="0.5" d="M29.4238 87.4641C29.0558 87.1476 28.5827 86.9888 28.1096 86.9877C27.5839 86.9339 27.1107 87.1433 26.6902 87.3528C27.1633 87.196 27.5839 87.0391 28.1096 87.0403C28.5301 87.0939 29.0558 87.1476 29.4238 87.4641Z" fill="#00730C"/>
</g>
<path opacity="0.5" d="M30.8958 84.5743C30.8432 84.8372 30.6855 85.0473 30.5278 85.2047C30.3175 85.4147 30.1072 85.5194 29.8443 85.5715C30.1072 85.5194 30.37 85.4148 30.5278 85.2047C30.6855 85.0473 30.8432 84.8372 30.8958 84.5743Z" fill="#00730C"/>
<path opacity="0.5" d="M31.6846 84.5756C31.632 84.8911 31.3691 85.0484 31.0537 85.1529C31.3691 85.101 31.632 84.8911 31.6846 84.5756Z" fill="#00730C"/>
<path opacity="0.5" d="M30.1072 84.5724C30.0546 84.8879 29.8443 85.2031 29.634 85.4657C29.3712 85.7281 29.0032 85.9377 28.6352 86.0421C29.0032 85.9377 29.3712 85.7807 29.634 85.4657C29.8969 85.2558 30.1072 84.8881 30.1072 84.5724Z" fill="#00730C"/>
<path opacity="0.5" d="M29.161 84.4127C29.161 84.7809 29.0558 85.2541 28.8455 85.5693C28.6878 85.7794 28.5301 85.9894 28.3724 86.1469C28.2147 86.3044 28.0044 86.4091 27.8467 86.514C28.2147 86.3044 28.6353 86.0423 28.8455 85.6219C29.0558 85.2541 29.2135 84.8336 29.161 84.4127Z" fill="#00730C"/>
<path opacity="0.5" d="M28.0568 84.9887C28.1094 85.4623 27.8991 85.9353 27.6888 86.3557C27.426 86.776 27.058 87.0908 26.6374 87.4055C26.8477 87.3007 27.0054 87.1959 27.1631 87.0384C27.3734 86.881 27.5311 86.671 27.6888 86.4083C27.9517 85.9354 28.1094 85.4623 28.0568 84.9887Z" fill="#00730C"/>
</g>
<path opacity="0.5" d="M33.0513 84.7366C32.9987 84.7365 32.5256 84.8406 32.473 84.8405C32.2101 84.8925 31.9473 84.9445 31.6844 84.9966C31.1062 85.1531 30.5279 85.3096 29.9496 85.5188C29.3713 85.7279 28.7931 85.9371 28.2148 86.2514C27.6891 86.5133 27.216 86.8279 26.7428 87.1951C26.6377 87.3 26.48 87.4049 26.3748 87.5099C26.7428 87.1951 27.1108 86.9328 27.5314 86.6708C28.0571 86.3563 28.5828 86.0418 29.1611 85.8327C30.265 85.3617 31.369 84.9959 32.5256 84.788C32.6307 84.7882 32.7358 84.7359 32.841 84.7361C32.9461 84.7363 32.9987 84.7365 33.0513 84.7366Z" fill="#00730C"/>
</g>
</g>
<g opacity="0.5">
<path opacity="0.5" d="M28.215 88.9344C28.215 88.9344 27.9522 88.8286 27.5842 88.67C27.1636 88.5112 26.6379 88.3523 26.1122 88.2459C25.8493 88.1927 25.5339 88.1394 25.2711 88.0862C25.1134 88.0858 25.0082 88.0856 24.9031 88.0328C24.7979 88.0325 24.6928 88.0323 24.5351 88.032C24.4299 88.0317 24.3248 88.0315 24.2722 88.084C24.1671 88.0837 24.1145 88.0836 24.062 88.1361C23.9568 88.1885 23.8517 88.1883 23.8517 88.1883C23.8517 88.1883 23.9042 88.1884 24.062 88.1361C24.1145 88.1362 24.1671 88.0837 24.2722 88.084C24.3774 88.0842 24.4299 88.0317 24.5351 88.032C24.6402 88.0322 24.7454 87.9798 24.9031 87.9802C25.0082 87.9804 25.1659 87.9807 25.2711 87.981C25.5339 87.9816 25.8493 88.0349 26.1122 88.0881C27.2687 88.2484 28.3202 88.6716 28.3202 88.6716C28.4253 88.7245 28.4253 88.7771 28.4253 88.8823C28.4253 88.9349 28.3201 88.9347 28.215 88.9344Z" fill="#00730C"/>
<g opacity="0.5">
<g opacity="0.5">
<path opacity="0.5" d="M41.4628 94.2244C42.0937 94.068 42.6719 93.8589 43.3028 93.6498C43.5656 93.5452 43.8285 93.4932 44.0913 93.3886C44.1965 93.3362 44.3016 93.2838 44.4067 93.284C44.5119 93.2317 44.617 93.1793 44.7222 93.1795C44.5645 93.1792 44.4067 93.0736 44.3016 93.0208C44.0913 92.9677 43.9336 92.8621 43.7233 92.8091C43.3028 92.6503 42.9348 92.4391 42.5142 92.2277C41.8308 91.858 36.784 88.217 35.7852 87.6887C34.9966 87.3187 34.2081 87.0013 33.3144 86.9993C32.3156 86.9445 31.3167 87.1527 30.3705 87.5715C29.687 87.8856 29.0036 88.1997 28.4254 88.7245C28.3202 88.7769 28.3202 88.8821 28.3202 88.9873C28.2676 89.2502 28.2676 89.5132 28.2676 89.8289C28.2676 91.6175 29.0562 93.3552 30.5807 94.3581C32.3156 95.5193 34.6286 95.6822 36.6263 95.4236C37.52 95.3204 40.9371 94.3811 41.4628 94.2244Z" fill="#00730C"/>
<path opacity="0.5" d="M36.8889 88.3223C36.1003 87.7945 35.2066 87.3717 34.3129 87.1593C32.4729 86.6817 30.5804 87.2562 29.0559 88.2523C28.8456 88.4097 28.5827 88.5143 28.425 88.7244C28.3725 88.7769 28.3725 88.7769 28.4776 88.8297C28.793 89.0409 29.1084 89.1994 29.4764 89.358C30.7381 90.0447 32.0524 90.6263 33.4192 91.1553C36.1003 92.1608 38.9391 92.7984 41.8305 93.0678C42.8293 93.1752 43.7756 93.1773 44.7744 93.1796C43.6704 92.9141 38.1505 89.1142 36.8889 88.3223Z" fill="#00730C"/>
</g>
<g opacity="0.5">
<g opacity="0.5">
<path opacity="0.5" d="M40.3586 91.3288C39.9906 91.8541 39.4124 92.1158 38.8341 92.325C38.2033 92.4814 37.625 92.4275 36.9941 92.2683C37.625 92.3749 38.2558 92.4289 38.8867 92.2725C39.4649 92.1159 39.9906 91.8015 40.3586 91.3288Z" fill="#00730C"/>
<path opacity="0.5" d="M42.1462 92.3847C41.6731 93.0149 40.8846 93.0658 40.2011 92.9065C40.8846 93.0658 41.6731 92.9623 42.1462 92.3847Z" fill="#00730C"/>
<path opacity="0.5" d="M38.5713 90.3253C38.0982 90.9555 37.3096 91.3746 36.521 91.5306C35.6273 91.7391 34.7337 91.6319 33.84 91.4195C34.7337 91.5793 35.6273 91.6865 36.521 91.478C37.257 91.3219 38.0456 90.9028 38.5713 90.3253Z" fill="#00730C"/>
<path opacity="0.5" d="M36.8892 88.9537C36.3109 89.7941 35.3121 90.2653 34.3658 90.5263C33.3144 90.8396 32.263 90.6794 31.2116 90.4141C31.6847 90.5203 32.2104 90.6267 32.6835 90.6277C33.3144 90.6291 33.8927 90.5778 34.4709 90.4213C35.4172 90.213 36.3109 89.6889 36.8892 88.9537Z" fill="#00730C"/>
<path opacity="0.5" d="M35.3645 87.9508C34.6285 88.8434 33.5245 89.2618 32.4206 89.5224C31.264 89.7829 30.0549 89.5172 28.9509 89.1465C30.0549 89.412 31.1589 89.5722 32.3154 89.417C33.4194 89.209 34.5759 88.7907 35.3645 87.9508Z" fill="#00730C"/>
</g>
<path opacity="0.5" d="M39.6753 94.2206C39.465 93.694 39.097 93.2198 38.6239 92.8505C38.0982 92.4811 37.5199 92.322 36.8365 92.1627C37.4673 92.2167 38.0456 92.3758 38.5713 92.7452C39.0445 93.1671 39.5176 93.6416 39.6753 94.2206Z" fill="#00730C"/>
<path opacity="0.5" d="M41.5676 93.9618C41.3048 93.2247 40.6214 92.9076 39.9379 92.8008C40.6214 92.9076 41.3573 93.2248 41.5676 93.9618Z" fill="#00730C"/>
<path opacity="0.5" d="M37.9404 94.4799C37.7301 93.743 37.1519 93.0578 36.521 92.5829C35.785 92.0026 34.9439 91.7377 34.0502 91.5253C34.9439 91.6851 35.8376 91.9502 36.5736 92.5305C37.2044 93.0053 37.7301 93.6903 37.9404 94.4799Z" fill="#00730C"/>
<path opacity="0.5" d="M35.7324 95.1587C35.6273 94.2641 35.2067 93.3163 34.5759 92.631C34.1553 92.1566 33.7347 91.7874 33.209 91.418C32.7885 91.1541 32.3154 90.9426 31.8422 90.7311C32.8411 91.1016 33.7873 91.5771 34.4707 92.4203C35.2067 93.2111 35.7324 94.1591 35.7324 95.1587Z" fill="#00730C"/>
<path opacity="0.5" d="M32.9463 94.2056C32.8937 93.1008 32.3154 92.0474 31.632 91.2041C30.896 90.2556 29.8972 89.6747 28.8458 89.1463C29.3189 89.3578 29.7921 89.5693 30.2126 89.8332C30.7383 90.15 31.264 90.6247 31.6846 91.0991C32.368 91.9949 32.9463 93.0483 32.9463 94.2056Z" fill="#00730C"/>
</g>
<path opacity="0.5" d="M44.6694 93.1792C44.6169 93.1791 43.4603 93.1765 43.3552 93.1763C42.7243 93.1223 42.0409 93.1208 41.4101 93.0141C39.9907 92.9058 38.5713 92.6922 37.1519 92.3734C35.7325 92.0547 34.2605 91.7358 32.8937 91.2067C31.632 90.7304 28.5829 88.9877 28.2149 88.7764C29.2137 89.3573 30.16 89.8855 31.2114 90.3086C32.5257 90.8376 33.8399 91.3666 35.2068 91.7379C37.8879 92.4803 40.6741 92.9599 43.4603 93.1239C43.7232 93.1245 43.986 93.1777 44.2489 93.1783C44.4066 93.1786 44.6169 93.1791 44.6694 93.1792Z" fill="#00730C"/>
</g>
</g>
</g>
</g>
</g>
</svg>
